<svg xmlns="http://www.w3.org/2000/svg"><style>:root svg:not(:target){display:none}</style><svg fill="none" id="clock" viewBox="0 0 21 21"><g clip-path="url(#clock_0)" fill="#EA6F12"><path d="M10.5 4.594a.656.656 0 1 0-1.313 0v7.218a.656.656 0 0 0 .331.57l4.594 2.625a.656.656 0 0 0 .651-1.14L10.5 11.433V4.594Z"></path><path d="M10.5 21a10.5 10.5 0 1 0 0-21 10.5 10.5 0 0 0 0 21Zm9.188-10.5a9.187 9.187 0 1 1-18.375 0 9.187 9.187 0 0 1 18.375 0Z"></path></g><defs><clipPath id="clock_0"><path fill="#fff" d="M0 0h21v21H0z"></path></clipPath></defs></svg><svg fill="none" id="engineer" viewBox="0 0 80 81"><ellipse cx="54.124" cy="28.275" rx="25.795" ry="27.9" fill="#ED6D12"></ellipse><path d="m51.919 54.407-2.72-.63-.01-.004-6.524-1.51c.044-.345.067-.694.07-1.042v-3.277c1.958-1.353 3.57-3.217 4.686-5.42a15.945 15.945 0 0 0 1.705-7.19v-2.67h1.49a.887.887 0 0 0 .364-.078.948.948 0 0 0 .308-.222c.088-.095.158-.209.206-.333a1.1 1.1 0 0 0 .072-.393v-3.522c0-.134-.025-.268-.072-.393a1.036 1.036 0 0 0-.206-.333.95.95 0 0 0-.308-.223.888.888 0 0 0-.364-.078h-.685c-.04-3.53-1.17-6.945-3.212-9.7-2.041-2.755-4.876-4.692-8.054-5.503V9.555c0-.135-.024-.269-.072-.393a1.035 1.035 0 0 0-.206-.334.948.948 0 0 0-.308-.222.887.887 0 0 0-.363-.078h-4.883a.915.915 0 0 0-.672.3 1.071 1.071 0 0 0-.278.727v2.331c-3.177.81-6.012 2.748-8.054 5.503-2.041 2.755-3.172 6.17-3.211 9.7h-.686a.888.888 0 0 0-.363.079.95.95 0 0 0-.308.222 1.036 1.036 0 0 0-.206.333 1.1 1.1 0 0 0-.072.393v3.522c0 .134.024.268.072.393.048.124.118.238.206.333a.948.948 0 0 0 .308.223.886.886 0 0 0 .363.077h1.49v2.67a15.947 15.947 0 0 0 1.706 7.19c1.117 2.203 2.728 4.067 4.686 5.42v3.276c.002.35.026.698.07 1.043l-6.524 1.51h-.007l-2.722.63c-1.668.392-3.162 1.387-4.236 2.822-1.074 1.435-1.663 3.223-1.67 5.07v14.747c0 .272.1.533.279.726.178.192.42.3.671.3h43.199a.915.915 0 0 0 .671-.3 1.07 1.07 0 0 0 .278-.726V62.294c-.007-1.845-.596-3.632-1.67-5.067-1.073-1.434-2.567-2.429-4.234-2.82ZM48.032 27.09H43.55v-6.016c0-.272-.1-.533-.279-.726a.915.915 0 0 0-.671-.3.915.915 0 0 0-.671.3 1.071 1.071 0 0 0-.278.726v6.015h-2.985v-13.1c2.664.79 5.017 2.496 6.707 4.858 1.689 2.363 2.623 5.256 2.66 8.242Zm-14.25-16.508h2.985V27.09h-2.985V10.582Zm-1.899 3.408v13.1H28.9v-6.016c0-.272-.1-.533-.278-.726a.914.914 0 0 0-.671-.3.914.914 0 0 0-.671.3 1.07 1.07 0 0 0-.279.726v6.015h-4.483c.037-2.986.97-5.879 2.66-8.241 1.69-2.363 4.043-4.068 6.706-4.858ZM20.882 29.143h28.785v1.468H20.882v-1.468Zm2.441 6.192v-2.67h23.904v2.67c0 3.428-1.26 6.717-3.5 9.141-2.242 2.425-5.282 3.787-8.453 3.787-3.17 0-6.21-1.362-8.451-3.787-2.242-2.424-3.501-5.713-3.501-9.141h.001ZM35.274 50.31a12.895 12.895 0 0 0 5.562-1.262v2.172c0 1.595-.586 3.125-1.63 4.253-1.042 1.128-2.457 1.762-3.932 1.762-1.474 0-2.889-.634-3.932-1.762-1.043-1.128-1.629-2.658-1.629-4.253v-2.172a12.895 12.895 0 0 0 5.561 1.262Zm-20.65 11.983a6.356 6.356 0 0 1 1.247-3.777c.8-1.07 1.914-1.81 3.158-2.102l1.58-.367v19.967h-5.984v-13.72Zm7.884-6.685 5.86-1.357a8.047 8.047 0 0 0 2.36 3.353 7.183 7.183 0 0 0 3.6 1.612v16.798h-11.82V55.609Zm13.716 20.406V59.217a7.182 7.182 0 0 0 3.6-1.612 8.045 8.045 0 0 0 2.36-3.353l5.86 1.357v20.406h-11.82Zm19.7 0H49.94V56.049l1.58.366c1.244.292 2.358 1.034 3.158 2.102a6.356 6.356 0 0 1 1.246 3.777v13.72Z" fill="#F5F5F5"></path><path d="M53.618 65.632a.888.888 0 0 0-.363.078.95.95 0 0 0-.308.223 1.036 1.036 0 0 0-.206.333 1.1 1.1 0 0 0-.072.393v3.671c0 .272.1.534.278.726.178.193.42.301.671.301a.914.914 0 0 0 .672-.3 1.07 1.07 0 0 0 .278-.727v-3.67c0-.273-.1-.534-.278-.727a.914.914 0 0 0-.672-.3ZM30.858 63.297h-4.883a.915.915 0 0 0-.672.301 1.071 1.071 0 0 0-.278.726c0 .273.1.534.279.727.178.192.42.3.67.3h4.884a.915.915 0 0 0 .671-.3 1.07 1.07 0 0 0 .278-.727c0-.272-.1-.533-.278-.726a.915.915 0 0 0-.671-.3Z" fill="#F5F5F5"></path></svg><svg fill="none" id="equipment" viewBox="0 0 90 80"><ellipse cx="64.121" cy="28.275" rx="25.795" ry="27.9" fill="#ED6D12"></ellipse><g clip-path="url(#equipment_0)" fill="#F5F5F5"><path d="m6.473 52.467 2.315-7.511c.157-.511.6-.856 1.097-.857h5.788c.639 0 1.157.561 1.157 1.252v6.26c0 .623-.423 1.151-.993 1.24l-8.102 1.251c-.055.009-.11.013-.165.013-.639 0-1.157-.562-1.156-1.253 0-.134.02-.267.06-.395Zm8.042-1.941v-3.923H10.72l-1.46 4.734 5.255-.811Z"></path><path d="M2.94 27.824c-.498 0-.94-.345-1.097-.856L.686 23.212a1.343 1.343 0 0 1-.06-.395v-5.008c0-.692.518-1.252 1.157-1.252H53.65c1.915-3.59 6.158-4.822 9.478-2.751 2.15 1.341 3.474 3.822 3.472 6.507v28.794h2.315c.639 0 1.157.56 1.157 1.252v15.023c0 .692-.518 1.252-1.157 1.252h-1.158v2.504h1.158v2.504h-4.63v-2.504h1.157v-2.504h-4.745c-.64 3.387-3.696 5.573-6.828 4.881-3.132-.69-5.152-3.998-4.513-7.385.64-3.387 3.696-5.572 6.828-4.881 2.273.502 4.049 2.423 4.513 4.881h2.43V56.62H38.144L35.35 59.64v4.49h2.431c.64-3.388 3.696-5.573 6.828-4.882 3.132.691 5.152 3.998 4.513 7.385-.64 3.387-3.696 5.573-6.828 4.881-2.273-.501-4.049-2.422-4.513-4.88H23.775v2.503h1.157v2.504h-4.63v-2.504h1.158v-2.504h-4.746c-.636 3.388-3.69 5.577-6.823 4.889-2.278-.5-4.058-2.425-4.52-4.889H1.783c-.64 0-1.158-.56-1.158-1.252v-12.52c0-.159.028-.317.083-.465l4.63-12.52c.175-.474.601-.786 1.075-.785h13.89c.639 0 1.157.56 1.157 1.252v8.763h19.677v-7.682c.004-4.052 3.04-7.336 6.787-7.341h4.787v-1.616l-22.188-8.4H9.56l-.894 2.9c-.157.511-.599.856-1.097.856H6.413v2.504c0 .692-.519 1.252-1.158 1.252-.639 0-1.157.56-1.157 1.252 0 .691.518 1.252 1.157 1.252.64 0 1.158-.56 1.158-1.252h2.315c0 2.074-1.556 3.755-3.473 3.755-1.918 0-3.473-1.682-3.472-3.757 0-1.591.928-3.01 2.315-3.54v-1.466H2.94Zm52.086 33.802c-1.918 0-3.472 1.682-3.472 3.756 0 2.075 1.554 3.756 3.472 3.756s3.473-1.681 3.473-3.756c0-2.074-1.555-3.756-3.473-3.756Zm-11.574 7.512c1.917 0 3.472-1.681 3.472-3.756 0-2.074-1.555-3.756-3.472-3.756-1.918 0-3.473 1.682-3.473 3.756 0 2.075 1.555 3.756 3.473 3.756Zm-32.41 0c1.918 0 3.473-1.681 3.473-3.756 0-2.074-1.555-3.756-3.472-3.756-1.918 0-3.473 1.682-3.473 3.756 0 2.075 1.555 3.756 3.473 3.756Zm8.103-27.543H7.196L2.94 53.103v4.768h2.315v2.503H2.94v3.756h2.431c.636-3.388 3.69-5.576 6.823-4.888 2.278.5 4.058 2.425 4.52 4.888h2.43V41.596Zm45.14-21.282c0-2.766-2.072-5.008-4.629-5.008-2.557 0-4.63 2.242-4.63 5.008v28.794h9.26V20.313Zm1.158 43.817h2.315V56.62h-2.315v7.511Zm-43.983 0h2.315V56.62H21.46v7.511Zm0-12.52v2.505h3.472c.64 0 1.158.56 1.158 1.252v8.763h6.944v-5.007c0-.332.123-.65.34-.886l3.472-3.755c.217-.235.511-.367.818-.367h30.094V51.61H21.46ZM48.08 36.589h-.157c-2.469.003-4.47 2.167-4.472 4.837v1.422h4.63v-6.26Zm2.315 0v7.511c0 .692-.518 1.252-1.157 1.252h-5.787v3.756h9.26v-12.52h-2.316Zm2.315-6.772v-5.748H37.53l15.181 5.748ZM16.83 21.564H52.71v-2.503H16.83v2.503Zm-6.945 0h4.63v-2.503h-4.63v2.503Zm-3.15 3.756.835-2.706V19.06H2.94v3.553l.835 2.706h2.96Z"></path></g><defs><clipPath id="equipment_0"><path fill="#fff" transform="matrix(-1 0 0 1 70.073 4.667)" d="M0 0h69.448v75.116H0z"></path></clipPath></defs></svg><svg fill="none" id="marker" viewBox="0 0 21 22"><g clip-path="url(#marker_0)" fill="#EA6F12"><path d="M10.5.5C6.222.5 2.743 3.98 2.743 8.258c0 1.408.631 2.922.658 2.986.204.484.606 1.236.896 1.677l5.32 8.06c.217.33.539.519.883.519s.666-.19.884-.52l5.32-8.059c.29-.44.692-1.193.896-1.677.026-.063.657-1.578.657-2.986C18.258 3.98 14.777.5 10.5.5Zm6.259 10.39a11.46 11.46 0 0 1-.818 1.529l-5.32 8.06c-.104.159-.137.159-.242 0l-5.32-8.06a11.474 11.474 0 0 1-.817-1.53c-.008-.018-.587-1.412-.587-2.631A6.853 6.853 0 0 1 10.5 1.413a6.853 6.853 0 0 1 6.845 6.845c0 1.22-.58 2.618-.586 2.632Z"></path><path d="M10.5 4.151a4.112 4.112 0 0 0-4.107 4.107 4.112 4.112 0 0 0 4.107 4.107 4.112 4.112 0 0 0 4.107-4.107A4.112 4.112 0 0 0 10.5 4.151Zm0 7.301a3.198 3.198 0 0 1-3.194-3.194A3.198 3.198 0 0 1 10.5 5.064a3.198 3.198 0 0 1 3.194 3.194 3.198 3.198 0 0 1-3.194 3.194Z"></path></g><defs><clipPath id="marker_0"><path fill="#fff" transform="translate(0 .5)" d="M0 0h21v21H0z"></path></clipPath></defs></svg><svg fill="none" id="next" viewBox="0 0 13 20"><path d="m1.088 1.169 9.162 8.53-9.162 8.531" stroke="#fff" stroke-width="3"></path></svg><svg fill="none" id="phone" viewBox="0 0 25 21"><g clip-path="url(#phone_0)" fill="#EA6F12"><path d="M19.81 13.009c-.49-.448-1.081-.687-1.708-.687-.622 0-1.218.235-1.729.682L14.776 14.4c-.131-.062-.263-.12-.389-.177-.182-.08-.354-.155-.5-.235-1.496-.833-2.856-1.919-4.16-3.324-.632-.7-1.056-1.29-1.364-1.888.414-.332.798-.678 1.172-1.01.142-.125.283-.253.425-.377 1.061-.931 1.061-2.137 0-3.067l-1.38-1.21c-.157-.138-.318-.28-.47-.421a22.695 22.695 0 0 0-.95-.825 2.562 2.562 0 0 0-1.693-.651c-.617 0-1.213.226-1.719.651l-.01.01-1.718 1.52c-.647.567-1.016 1.258-1.097 2.06-.121 1.295.313 2.5.647 3.289.819 1.937 2.042 3.732 3.866 5.655 2.214 2.318 4.877 4.149 7.92 5.439 1.162.483 2.714 1.055 4.448 1.152.106.005.217.009.318.009 1.168 0 2.148-.368 2.916-1.1.005-.008.015-.012.02-.021.263-.28.567-.532.885-.803.217-.181.44-.372.657-.571.5-.457.763-.989.763-1.534 0-.55-.268-1.077-.778-1.52l-2.775-2.442Zm1.81 4.667c-.006 0-.006.004 0 0-.198.186-.4.355-.617.54-.329.275-.662.563-.976.887-.51.479-1.111.705-1.9.705-.076 0-.157 0-.232-.005-1.501-.084-2.896-.598-3.943-1.037-2.86-1.214-5.372-2.938-7.46-5.123-1.723-1.822-2.875-3.506-3.638-5.315-.47-1.103-.642-1.963-.566-2.774.05-.519.278-.949.697-1.317l1.724-1.51c.247-.205.51-.316.768-.316.318 0 .576.169.738.31l.015.014c.308.253.601.514.91.793.156.142.318.284.48.43L9 5.168c.535.47.535.904 0 1.374-.147.129-.289.257-.435.381-.425.382-.829.736-1.269 1.082-.01.009-.02.013-.025.022-.435.381-.354.753-.263 1.006l.015.04c.36.762.865 1.48 1.633 2.336l.005.004c1.395 1.507 2.866 2.682 4.488 3.581.207.116.42.209.622.297.181.08.353.155.5.235.02.01.04.022.06.031.172.076.334.111.5.111.42 0 .683-.23.77-.306l1.728-1.515c.171-.151.444-.333.763-.333.313 0 .57.173.728.324l.01.009 2.784 2.442c.521.452.521.917.005 1.387ZM13.826 4.995a6.753 6.753 0 0 1 3.488 1.587c.96.842 1.581 1.897 1.809 3.058.055.293.344.497.672.497.04 0 .076-.005.116-.01.374-.052.622-.363.561-.69-.273-1.406-1.03-2.687-2.188-3.701-1.157-1.015-2.618-1.68-4.22-1.92-.374-.053-.723.164-.789.488-.065.323.177.638.551.691ZM24.804 9.264c-.45-2.314-1.693-4.42-3.604-6.095C19.29 1.494 16.89.404 14.25.01c-.368-.057-.717.164-.783.488-.06.328.187.633.561.691 2.356.35 4.504 1.33 6.212 2.823 1.708 1.498 2.82 3.382 3.22 5.448.055.292.343.496.671.496.04 0 .076-.004.117-.009.369-.049.621-.359.556-.682Z"></path></g><defs><clipPath id="phone_0"><path fill="#fff" transform="translate(.885)" d="M0 0h23.946v21H0z"></path></clipPath></defs></svg><svg fill="none" id="prev" viewBox="0 0 13 20"><path d="M11.912 1.169 2.75 9.699l9.162 8.531" stroke="#fff" stroke-width="3"></path></svg><svg id="stack"></svg><svg fill="none" id="timer" viewBox="0 0 75 81"><ellipse cx="49.124" cy="27.9" rx="25.795" ry="27.9" fill="#ED6D12"></ellipse><g clip-path="url(#timer_0)" fill="#F5F5F5"><path d="M35.235 5.365C16.09 5.365.511 22.215.511 42.923c0 20.71 15.578 37.558 34.724 37.558 19.147 0 34.724-16.848 34.724-37.557 0-20.71-15.577-37.559-34.724-37.559Zm0 70.422c-16.754 0-30.383-14.742-30.383-32.864 0-18.12 13.63-32.863 30.383-32.863 16.754 0 30.384 14.742 30.384 32.863 0 18.122-13.63 32.864-30.384 32.864Z"></path><path d="M37.405 19.45h-4.34v24.445l13.657 14.772 3.07-3.32-12.387-13.396V19.45Z"></path></g><defs><clipPath id="timer_0"><path fill="#fff" transform="translate(.511 5.365)" d="M0 0h69.448v75.116H0z"></path></clipPath></defs></svg><svg fill="none" id="tools" viewBox="0 0 80 81"><ellipse cx="54.121" cy="27.9" rx="25.795" ry="27.9" fill="#ED6D12"></ellipse><g clip-path="url(#tools_0)" fill="#F5F5F5"><path d="m.767 12.256 4.631 8.767c.156.296.418.51.724.593l4.32 1.168 14.821 16.03 1.638-1.77-15.053-16.28a1.136 1.136 0 0 0-.537-.33L7.16 19.307l-3.943-7.468 3.38-3.657 6.908 4.27 1.042 4.49c.05.22.156.422.305.582l15.052 16.281 1.637-1.771-14.82-16.03-1.08-4.671a1.248 1.248 0 0 0-.55-.784l-8.105-5.01a1.093 1.093 0 0 0-1.39.202l-4.63 5.01a1.33 1.33 0 0 0-.198 1.505ZM48.904 30.047 23.432 57.6l-1.638-1.77 25.473-27.552 1.637 1.77ZM18.974 58.574a1.142 1.142 0 0 0-.993-.607h-6.947c-.406 0-.783.23-.992.607l-3.474 6.262a1.34 1.34 0 0 0 0 1.29l3.474 6.261c.209.377.586.608.992.608h6.947c.407 0 .783-.231.993-.608l3.473-6.261a1.34 1.34 0 0 0 0-1.29l-3.473-6.262ZM17.326 70.49H11.69l-2.78-5.01 2.78-5.009h5.636l2.779 5.01-2.779 5.009Z"></path><path d="M56.19 35.424c7.648.028 13.868-6.655 13.894-14.926a16.14 16.14 0 0 0-.426-3.734c-.154-.671-.782-1.08-1.403-.913-.204.055-.39.17-.538.33l-7.207 7.79-5.72-2.061-1.906-6.184L60.09 7.93a1.326 1.326 0 0 0 0-1.771 1.138 1.138 0 0 0-.543-.33c-7.416-2.032-14.95 2.824-16.828 10.845a16.106 16.106 0 0 0-.142 6.657L17.22 50.757c-.893-.2-1.802-.301-2.713-.305C6.834 50.452.614 57.18.614 65.48s6.22 15.028 13.894 15.028S28.402 73.78 28.402 65.48a15.905 15.905 0 0 0-.281-2.934l6.07-6.566 2.655 2.872a1.098 1.098 0 0 0 1.638 0l.578-.627a1.235 1.235 0 0 1 1.837 0c.507.547.508 1.435.002 1.984l-.003.003-.578.626a1.325 1.325 0 0 0 0 1.77l13.812 14.94c3.633 3.965 9.55 3.994 13.215.064 3.666-3.929 3.693-10.329.06-14.294a7.011 7.011 0 0 0-.06-.065L53.535 48.315a1.097 1.097 0 0 0-1.637 0l-.578.626a1.234 1.234 0 0 1-1.837 0 1.485 1.485 0 0 1-.002-1.984l.002-.002.58-.627a1.326 1.326 0 0 0 0-1.77l-2.656-2.872 6.07-6.566c.893.2 1.802.301 2.713.304Zm4.55 42.58a6.568 6.568 0 0 1-2.463-.486l9.043-9.781c1.364 3.926-.472 8.305-4.102 9.781a6.557 6.557 0 0 1-2.479.486ZM47.623 45.455c-1.283 1.655-1.082 4.12.448 5.507 1.344 1.218 3.303 1.217 4.646-.004L65.71 65.025c.141.152.273.314.4.478L56.212 76.21a6.917 6.917 0 0 1-.442-.433L42.765 61.71c1.282-1.654 1.081-4.12-.448-5.506-1.344-1.22-3.304-1.218-4.647.003l-1.852-2.004 9.952-10.748 1.852 2Zm4.675-12.595L26.032 61.264a1.324 1.324 0 0 0-.306 1.19c1.589 6.747-2.18 13.61-8.42 15.327-6.238 1.719-12.583-2.359-14.171-9.106-1.588-6.748 2.181-13.61 8.42-15.329 1.887-.519 3.864-.519 5.752 0a1.11 1.11 0 0 0 1.1-.33l26.26-28.404c.287-.312.403-.763.304-1.19-1.578-6.669 2.141-13.458 8.307-15.164a10.694 10.694 0 0 1 3.57-.365l-6.108 6.609c-.31.334-.418.83-.28 1.28l2.316 7.515c.115.373.387.667.733.791l6.947 2.505c.415.15.874.033 1.184-.302l6.108-6.606c.014.239.02.475.02.71.033 6.882-5.098 12.489-11.46 12.524a10.714 10.714 0 0 1-2.916-.39 1.1 1.1 0 0 0-1.1.33h.006Z"></path><path d="m60.484 68.352-1.638 1.771L47.268 57.6l1.637-1.771 11.579 12.523Z"></path></g><defs><clipPath id="tools_0"><path fill="#fff" transform="translate(.547 5.365)" d="M0 0h69.448v75.116H0z"></path></clipPath></defs></svg><svg fill="none" id="viber" viewBox="0 0 30 29"><path d="M14.655 2.1a22.72 22.72 0 0 0-2.465.145c-1.582.183-3.15.487-4.655 1.136-2.393 1.033-4.09 2.786-4.582 5.333a31.626 31.626 0 0 0-.473 3.26c-.185 2.13-.07 4.265.572 6.364.506 1.653 1.439 3.14 3.072 4.104.692.407 1.603.605 2.08.812.133.06.166.095.173.104.007.006.025.021.023.154-.016 1.347 0 3.954 0 3.954l.002.561h1.071l.174-.158s2.721-2.46 3.705-3.472c.178-.18.27-.282.289-.293.016-.011-.012-.018.17-.022 1.292-.024 2.581-.07 3.87-.137 1.7-.088 3.431-.24 5.098-.894 1.45-.57 2.662-1.501 3.396-2.897.75-1.431 1.15-2.948 1.3-4.518.25-2.613.162-5.231-.606-7.812-.453-1.512-1.362-2.791-2.756-3.694-1.67-1.079-3.551-1.484-5.393-1.742a29.642 29.642 0 0 0-3.247-.28 25.243 25.243 0 0 0-.818-.008Zm.786 1.136c1.033.026 2.067.121 3.103.266 1.776.25 3.452.628 4.889 1.557 1.165.753 1.891 1.77 2.28 3.067.717 2.413.809 4.886.567 7.411-.138 1.455-.506 2.827-1.183 4.12-.598 1.14-1.53 1.864-2.782 2.355-1.453.57-3.033.722-4.697.808-1.275.066-2.552.11-3.83.134-.32.007-.635.086-.857.24-.223.155-.324.298-.462.439-.703.722-2.105 1.992-2.869 2.688-.005-.841-.012-1.858 0-2.796a1.317 1.317 0 0 0-.241-.817c-.176-.233-.418-.374-.65-.476-.677-.295-1.563-.52-1.947-.746-1.343-.793-2.105-1.982-2.557-3.461-.593-1.935-.706-3.928-.53-5.956.094-1.052.255-2.107.46-3.153.426-2.203 1.767-3.59 3.9-4.51 1.347-.582 2.786-.868 4.303-1.042a21.828 21.828 0 0 1 3.103-.128Zm.253 2.81a7.07 7.07 0 0 0-1.442.15c-.32.07-.525.371-.452.675.073.304.396.493.72.425a5.567 5.567 0 0 1 1.174-.123c2.93 0 5.292 2.219 5.292 4.969 0 .38-.045.75-.131 1.107-.073.302.129.606.452.674.324.068.645-.123.717-.427.106-.436.162-.887.162-1.354 0-3.36-2.913-6.097-6.492-6.097ZM9.708 7.174c-.099-.004-.2.002-.305.024-1.09.227-2.173.969-2.203 2.294.03.185.028.383.1.55.357.82.666 1.665 1.112 2.44 2.168 3.765 5.447 6.383 9.626 8.045.499.198 1.014.24 1.518.042.694-.27 1.282-.689 1.674-1.29.536-.826.543-1.398-.34-2.008-.58-.4-1.149-.813-1.735-1.204-.893-.595-1.858-.698-2.524.345-.035.053-.087.097-.131.141-.342.341-.762.425-1.207.253-1.69-.653-2.995-1.708-3.783-3.278-.464-.922-.337-1.385.53-2 .087-.059.169-.122.248-.19.38-.327.48-.714.256-1.152a9.055 9.055 0 0 0-2.044-2.66c-.232-.207-.497-.337-.792-.352Zm5.976.561c-.264 0-.527.02-.785.062a.597.597 0 0 0-.483.354.543.543 0 0 0 .101.57.627.627 0 0 0 .584.186c.187-.029.384-.044.583-.044 1.95 0 3.516 1.47 3.516 3.302 0 .187-.016.372-.047.548a.547.547 0 0 0 .197.549c.169.132.4.17.607.094a.573.573 0 0 0 .377-.453c.045-.242.066-.489.066-.738 0-2.44-2.119-4.43-4.716-4.43ZM15.6 9.427a.612.612 0 0 0-.527.28.54.54 0 0 0 0 .568c.11.176.311.282.527.28 1 0 1.8.75 1.8 1.69a.56.56 0 0 0 .298.496.64.64 0 0 0 .604 0 .56.56 0 0 0 .298-.495c0-1.55-1.35-2.819-3-2.819Z" fill="#E7E7E7"></path></svg><svg fill="none" id="vkontakte" viewBox="0 0 25 25"><path d="M16.569.5H9.202C2.479.5.885 2.094.885 8.816v7.367c0 6.723 1.594 8.317 8.317 8.317h7.367c6.723 0 8.316-1.594 8.316-8.317V8.816C24.885 2.094 23.275.5 16.57.5Zm3.691 17.12h-1.742c-.66 0-.863-.523-2.05-1.726-1.032-1-1.488-1.132-1.743-1.132-.359 0-.46.1-.46.593v1.575c0 .422-.134.675-1.251.675-1.848 0-3.898-1.117-5.336-3.199-2.168-3.05-2.762-5.336-2.762-5.809 0-.254.102-.491.59-.491h1.746c.442 0 .61.203.781.675.864 2.492 2.301 4.676 2.894 4.676.22 0 .32-.102.32-.66v-2.574c-.066-1.188-.69-1.29-.69-1.711 0-.203.167-.406.436-.406h2.746c.371 0 .508.203.508.64v3.472c0 .375.168.508.27.508.218 0 .406-.133.811-.54 1.254-1.405 2.153-3.573 2.153-3.573.117-.255.32-.492.762-.492h1.746c.523 0 .64.269.523.644-.219 1.015-2.355 4.03-2.355 4.03-.184.305-.255.438 0 .778.187.254.797.781 1.202 1.254.747.847 1.32 1.558 1.473 2.05.172.489-.081.743-.574.743h.002Z" fill="#D3D3D3"></path></svg><svg fill="none" id="whatsapp" viewBox="0 0 24 25"><path fill-rule="evenodd" clip-rule="evenodd" d="M17.415 14.882c-.298-.149-1.759-.867-2.031-.967-.272-.099-.47-.148-.669.15-.198.296-.767.966-.94 1.164-.174.199-.347.223-.644.075-.297-.15-1.255-.463-2.39-1.475-.883-.788-1.48-1.761-1.653-2.059-.173-.297-.019-.458.13-.606.134-.133.297-.347.446-.52.149-.174.198-.298.297-.497.1-.198.05-.371-.025-.52-.074-.149-.668-1.612-.916-2.207-.241-.579-.486-.5-.668-.51-.174-.008-.372-.01-.57-.01-.198 0-.52.074-.792.372-.273.297-1.04 1.016-1.04 2.479 0 1.462 1.064 2.875 1.213 3.074.149.198 2.095 3.2 5.076 4.487.71.306 1.263.489 1.694.625.712.227 1.36.195 1.872.118.57-.085 1.758-.719 2.006-1.413.247-.694.247-1.289.173-1.413-.074-.124-.272-.198-.57-.347h.001Zm-5.422 7.403h-.004a9.87 9.87 0 0 1-5.032-1.378l-.36-.214-3.742.982.999-3.648-.235-.374a9.861 9.861 0 0 1-1.511-5.26c.002-5.45 4.436-9.884 9.889-9.884 2.64 0 5.122 1.03 6.988 2.898a9.825 9.825 0 0 1 2.892 6.993c-.002 5.45-4.436 9.885-9.884 9.885Zm8.412-18.297A11.815 11.815 0 0 0 11.992.5C5.438.5.102 5.835.1 12.392a11.864 11.864 0 0 0 1.587 5.945L0 24.5l6.304-1.654a11.882 11.882 0 0 0 5.684 1.448h.005c6.554 0 11.89-5.335 11.892-11.893a11.82 11.82 0 0 0-3.48-8.413Z" fill="#F5F5F5"></path></svg><svg fill="none" id="yandex" viewBox="0 0 25 25"><g clip-path="url(#yandex_0)"><path d="M2.787 16.848V14L.885 8.898h.957l1.398 3.938 1.614-4.762h.88l-2.071 5.957v2.818l-.876-.001Zm5.637 0H7.69a2.85 2.85 0 0 1-.075-.447h-.054c-.246.313-.563.525-1.055.525-.798 0-1.344-.602-1.344-1.703 0-1.2.614-1.957 2.184-1.957h.12v-.332c0-.736-.245-1.047-.734-1.047-.446 0-.825.233-1.114.488l-.168-.766c.258-.21.77-.445 1.336-.445.993 0 1.536.422 1.536 1.781v2.634c0 .534.054 1.004.097 1.27l.005-.001Zm-.953-2.922h-.102c-1.082 0-1.312.476-1.312 1.199 0 .645.211 1.066.652 1.066.3 0 .602-.199.758-.445l.004-1.82Zm2.801 2.922h-.867v-5.621h.867v.492h.054c.157-.211.58-.555 1.102-.555.734 0 1.121.41 1.121 1.266v4.418h-.879v-4.34c0-.423-.187-.57-.522-.57-.364 0-.672.28-.876.557v4.353Zm3.136-2.59c0-2.082.778-3.094 1.899-3.094.27 0 .547.09.715.211V8.898h.867v7.95h-.645l-.07-.447h-.055c-.242.313-.554.525-1.01.525-1.102 0-1.701-.934-1.701-2.668Zm2.615-2.117a.85.85 0 0 0-.657-.267c-.7 0-1.035 1.06-1.035 2.203 0 1.313.245 2.113.882 2.113.435 0 .664-.21.81-.433v-3.616Zm3.604 4.785c-1.156 0-1.871-.922-1.871-2.645 0-1.804.5-3.117 1.691-3.117.934 0 1.543.699 1.543 2.606v.476h-2.332c0 1.27.356 1.934 1.047 1.934.489 0 .848-.219 1.067-.375l.204.664c-.384.302-.86.464-1.348.457h-.001Zm-.957-3.395h1.434c0-.957-.157-1.656-.657-1.656-.531 0-.718.656-.78 1.656h.003Zm6.095-2.289-1.044 2.625 1.164 2.982h-.898l-.872-2.313-.843 2.313h-.855l1.167-2.904-1.058-2.703h.902l.727 2.035.765-2.035h.845Z" fill="#D3D3D3"></path></g><defs><clipPath id="yandex_0"><path fill="#fff" transform="translate(.885 .5)" d="M0 0h24v24H0z"></path></clipPath></defs></svg></svg>