<svg width="80" height="81" viewBox="0 0 80 81" fill="none" xmlns="http://www.w3.org/2000/svg">
<ellipse cx="54.1245" cy="28.275" rx="25.7949" ry="27.9002" fill="#ED6D12"/>
<path d="M51.9186 54.4065L49.1987 53.7762L49.189 53.7727L42.6652 52.2634C42.7092 51.9178 42.7324 51.5694 42.7347 51.2205V47.9436C44.6926 46.5908 46.3043 44.7268 47.4212 42.5233C48.5382 40.3198 49.1245 37.8476 49.126 35.3347V32.6645H50.6164C50.7411 32.6646 50.8647 32.6381 50.9799 32.5865C51.0951 32.5349 51.1998 32.4593 51.288 32.3639C51.3762 32.2685 51.4461 32.1553 51.4938 32.0307C51.5415 31.906 51.566 31.7724 51.5659 31.6376V28.1165C51.566 27.9816 51.5415 27.848 51.4938 27.7234C51.4461 27.5988 51.3762 27.4855 51.288 27.3901C51.1998 27.2948 51.0951 27.2191 50.9799 27.1675C50.8647 27.116 50.7411 27.0894 50.6164 27.0895H49.9312C49.8917 23.5589 48.7611 20.1441 46.7195 17.3889C44.6779 14.6337 41.8427 12.6967 38.6654 11.8862V9.55463C38.6655 9.41974 38.641 9.28616 38.5933 9.16153C38.5456 9.03689 38.4757 8.92365 38.3875 8.82827C38.2993 8.73289 38.1946 8.65725 38.0794 8.60567C37.9642 8.55408 37.8407 8.52757 37.716 8.52765H32.8329C32.5811 8.52765 32.3396 8.63585 32.1615 8.82844C31.9835 9.02104 31.8834 9.28225 31.8834 9.55463V11.8862C28.7061 12.6967 25.871 14.6337 23.8294 17.3889C21.7878 20.1441 20.6572 23.5589 20.6177 27.0895H19.9324C19.8077 27.0894 19.6842 27.116 19.569 27.1675C19.4538 27.2191 19.3491 27.2948 19.2609 27.3901C19.1727 27.4855 19.1028 27.5988 19.0551 27.7234C19.0074 27.848 18.9829 27.9816 18.9829 28.1165V31.6376C18.9829 31.7724 19.0074 31.906 19.0551 32.0307C19.1028 32.1553 19.1727 32.2685 19.2609 32.3639C19.3491 32.4593 19.4538 32.5349 19.569 32.5865C19.6842 32.6381 19.8077 32.6646 19.9324 32.6645H21.4228V35.3347C21.4244 37.8476 22.0107 40.3198 23.1276 42.5233C24.2446 44.7268 25.8563 46.5908 27.8142 47.9436V51.2205C27.8164 51.5694 27.8396 51.9178 27.8837 52.2634L21.3599 53.7727H21.3529L18.6314 54.403C16.9634 54.7946 15.469 55.7902 14.3952 57.225C13.3213 58.6599 12.7323 60.4482 12.7256 62.2943V77.0417C12.7256 77.314 12.8256 77.5753 13.0037 77.7678C13.1817 77.9604 13.4232 78.0686 13.6751 78.0686H56.8738C57.1256 78.0686 57.3671 77.9604 57.5452 77.7678C57.7233 77.5753 57.8233 77.314 57.8233 77.0417V62.2943C57.816 60.449 57.2268 58.6616 56.1532 57.2274C55.0796 55.7932 53.5858 54.7981 51.9186 54.4065ZM48.0322 27.0895H43.5485V21.0744C43.5485 20.802 43.4485 20.5408 43.2704 20.3482C43.0923 20.1556 42.8508 20.0474 42.599 20.0474C42.3472 20.0474 42.1057 20.1556 41.9276 20.3482C41.7496 20.5408 41.6495 20.802 41.6495 21.0744V27.0895H38.6654V13.9894C41.3286 14.7797 43.6822 16.4847 45.3716 18.8474C47.061 21.2102 47.9948 24.1029 48.0322 27.0895ZM33.7824 10.5816H36.7665V27.0895H33.7824V10.5816ZM31.8834 13.99V27.0895H28.8993V21.0744C28.8993 20.802 28.7993 20.5408 28.6212 20.3482C28.4432 20.1556 28.2017 20.0474 27.9499 20.0474C27.698 20.0474 27.4565 20.1556 27.2785 20.3482C27.1004 20.5408 27.0004 20.802 27.0004 21.0744V27.0895H22.5166C22.554 24.1029 23.4878 21.2103 25.1772 18.8476C26.8667 16.4849 29.2203 14.7801 31.8834 13.99ZM20.8819 29.1435H49.667V30.6106H20.8819V29.1435ZM23.3234 35.3347V32.6645H47.2271V35.3347C47.2271 38.7634 45.9678 42.0518 43.7262 44.4763C41.4847 46.9008 38.4445 48.2628 35.2744 48.2628C32.1044 48.2628 29.0642 46.9008 26.8227 44.4763C24.5811 42.0518 23.3218 38.7634 23.3218 35.3347H23.3234ZM35.2744 50.3109C37.1891 50.3129 39.0831 49.8832 40.8357 49.0492V51.2205C40.8357 52.8159 40.2498 54.3458 39.2068 55.4739C38.1639 56.6019 36.7494 57.2357 35.2744 57.2357C33.7995 57.2357 32.385 56.6019 31.342 55.4739C30.2991 54.3458 29.7132 52.8159 29.7132 51.2205V49.0492C31.4657 49.8832 33.3598 50.3129 35.2744 50.3109ZM14.6246 62.2943C14.6304 60.9185 15.0699 59.5859 15.8707 58.5169C16.6714 57.4479 17.7854 56.7063 19.0285 56.4147L20.609 56.0485V76.0147H14.6246V62.2943ZM22.508 55.609L28.3676 54.2522C28.8665 55.5757 29.6809 56.7325 30.7278 57.6047C31.7747 58.4768 33.0167 59.0331 34.3271 59.2169V76.0147H22.508V55.609ZM36.2239 76.0147V59.2169C37.5344 59.0332 38.7765 58.477 39.8234 57.6048C40.8703 56.7326 41.6847 55.5758 42.1834 54.2522L48.0431 55.609V76.0147H36.2239ZM55.9243 76.0147H49.9399V56.0491L51.5209 56.4153C52.7638 56.707 53.8776 57.4485 54.6782 58.5174C55.4788 59.5863 55.9184 60.9186 55.9243 62.2943V76.0147Z" fill="#F5F5F5"/>
<path d="M53.6184 65.6323C53.4937 65.6322 53.3702 65.6588 53.255 65.7103C53.1398 65.7619 53.0351 65.8376 52.9469 65.9329C52.8587 66.0283 52.7888 66.1416 52.7411 66.2662C52.6934 66.3908 52.6689 66.5244 52.6689 66.6593V70.33C52.6689 70.6024 52.769 70.8636 52.947 71.0562C53.1251 71.2488 53.3666 71.357 53.6184 71.357C53.8703 71.357 54.1118 71.2488 54.2898 71.0562C54.4679 70.8636 54.5679 70.6024 54.5679 70.33V66.6593C54.5679 66.3869 54.4679 66.1257 54.2898 65.9331C54.1118 65.7405 53.8703 65.6323 53.6184 65.6323Z" fill="#F5F5F5"/>
<path d="M30.8579 63.2975H25.9749C25.7231 63.2975 25.4815 63.4057 25.3035 63.5982C25.1254 63.7908 25.0254 64.0521 25.0254 64.3244C25.0254 64.5968 25.1254 64.858 25.3035 65.0506C25.4815 65.2432 25.7231 65.3514 25.9749 65.3514H30.8579C31.1097 65.3514 31.3512 65.2432 31.5293 65.0506C31.7074 64.858 31.8074 64.5968 31.8074 64.3244C31.8074 64.0521 31.7074 63.7908 31.5293 63.5982C31.3512 63.4057 31.1097 63.2975 30.8579 63.2975Z" fill="#F5F5F5"/>
</svg>
