<svg width="90" height="80" viewBox="0 0 90 80" fill="none" xmlns="http://www.w3.org/2000/svg">
<ellipse cx="64.1206" cy="28.275" rx="25.7949" ry="27.9002" fill="#ED6D12"/>
<g clip-path="url(#clip0_62_798)">
<path d="M6.47308 52.4674L8.78801 44.9558C8.94543 44.4447 9.38729 44.1 9.88529 44.0995H15.6726C16.3118 44.0995 16.8301 44.6601 16.8301 45.3514V51.6111C16.8302 52.2339 16.407 52.7621 15.837 52.8505L7.73472 54.1024C7.68032 54.1109 7.62534 54.1151 7.57036 54.115C6.93115 54.1145 6.41333 53.5535 6.41377 52.8621C6.41391 52.728 6.43388 52.5946 6.47308 52.4674ZM14.5151 50.5257V46.6034H10.7198L9.26026 51.3369L14.5151 50.5257Z" fill="#F5F5F5"/>
<path d="M2.94031 27.8242C2.44231 27.8237 2.00044 27.479 1.84303 26.9679L0.685562 23.2121C0.64592 23.0845 0.625671 22.9511 0.625381 22.8165V17.8087C0.625381 17.1174 1.14363 16.5568 1.78284 16.5568H53.6511C55.566 12.9663 59.8094 11.7345 63.129 13.8057C65.2789 15.147 66.6027 17.6282 66.6008 20.3126V49.1071H68.9158C69.555 49.1071 70.0732 49.6676 70.0732 50.359V65.3822C70.0732 66.0736 69.555 66.6341 68.9158 66.6341H67.7583V69.138H68.9158V71.6419H64.2859V69.138H65.4434V66.6341H60.6978C60.0586 70.0214 57.0016 72.2068 53.8699 71.5154C50.7382 70.8241 48.7177 67.5175 49.3569 64.1303C49.9962 60.743 53.0532 58.5576 56.1848 59.249C58.4577 59.7509 60.2338 61.672 60.6978 64.1303H63.1285V56.6187H38.1434L35.3493 59.6409V64.1303H37.78C38.4192 60.743 41.4762 58.5576 44.6079 59.249C47.7395 59.9404 49.76 63.2469 49.1208 66.6341C48.4816 70.0214 45.4246 72.2068 42.2929 71.5154C40.0201 71.0136 38.244 69.0925 37.78 66.6341H23.7747V69.138H24.9321V71.6419H20.3023V69.138H21.4597V66.6341H16.7141C16.0781 70.0222 13.0233 72.2109 9.89088 71.5229C7.61343 71.0228 5.83339 69.0975 5.37098 66.6341H1.78284C1.14363 66.6341 0.625381 66.0736 0.625381 65.3822V52.8629C0.625381 52.7034 0.653305 52.5454 0.707558 52.3972L5.33742 39.8778C5.5135 39.4026 5.9393 39.0913 6.4127 39.0916H20.3023C20.9415 39.0916 21.4597 39.6522 21.4597 40.3435V49.1071H41.1366V41.4252C41.1411 37.3727 44.1773 34.0887 47.924 34.0839H52.7113V32.4676L30.5227 24.0684H9.561L8.66744 26.9679C8.51003 27.479 8.06816 27.8237 7.57016 27.8242H6.4127V30.3281C6.4127 31.0195 5.89445 31.58 5.25523 31.58C4.61603 31.58 4.09777 32.1406 4.09777 32.8319C4.09777 33.5233 4.61603 34.0839 5.25523 34.0839C5.89445 34.0839 6.4127 33.5233 6.4127 32.8319H8.72763C8.7272 34.9062 7.17229 36.5874 5.25451 36.587C3.33674 36.5865 1.78241 34.9047 1.78284 32.8304C1.78313 31.239 2.71055 29.8206 4.09777 29.2901V27.8241H2.94031V27.8242ZM55.0262 61.6264C53.1084 61.6264 51.5538 63.3079 51.5538 65.3822C51.5538 67.4565 53.1084 69.138 55.0262 69.138C56.944 69.138 58.4986 67.4565 58.4986 65.3822C58.4986 63.3079 56.944 61.6264 55.0262 61.6264ZM43.4516 69.138C45.3693 69.138 46.924 67.4565 46.924 65.3822C46.924 63.3079 45.3693 61.6264 43.4516 61.6264C41.5338 61.6264 39.9792 63.3079 39.9792 65.3822C39.9792 67.4565 41.5338 69.138 43.4516 69.138ZM11.0426 69.138C12.9603 69.138 14.515 67.4565 14.515 65.3822C14.515 63.3079 12.9603 61.6264 11.0426 61.6264C9.12479 61.6264 7.57016 63.3079 7.57016 65.3822C7.57016 67.4565 9.12479 69.138 11.0426 69.138ZM19.1448 41.5955H7.1963L2.94031 53.1033V57.8706H5.25523V60.3745H2.94031V64.1303H5.37098C6.00701 60.7422 9.06185 58.5535 12.1942 59.2415C14.4717 59.7416 16.2517 61.6669 16.7141 64.1303H19.1448V41.5955ZM64.2859 20.3126C64.2859 17.5469 62.213 15.3049 59.6561 15.3049C57.0991 15.3049 55.0262 17.5469 55.0262 20.3126V49.1071H64.2859V20.3126ZM65.4434 64.1303H67.7583V56.6187H65.4434V64.1303ZM21.4597 64.1303H23.7747V56.6187H21.4597V64.1303ZM21.4597 51.6109V54.1148H24.9321C25.5713 54.1148 26.0896 54.6754 26.0896 55.3667V64.1303H33.0344V59.1225C33.0344 58.7905 33.1565 58.4722 33.3735 58.2374L36.8459 54.4816C37.0629 54.2469 37.3572 54.1148 37.6642 54.1148H67.7583V51.6109H21.4597ZM48.0814 36.5877H47.924C45.455 36.5906 43.4542 38.7547 43.4516 41.4252V42.8474H48.0814V36.5877ZM50.3963 36.5877V44.0993C50.3963 44.7907 49.8781 45.3513 49.2389 45.3513H43.4516V49.1071H52.7113V36.5877H50.3963ZM52.7113 29.816V24.0684H37.53L52.7113 29.816ZM16.8299 21.5645H52.7113V19.0607H16.8299V21.5645ZM9.88509 21.5645H14.515V19.0607H9.88509V21.5645ZM6.73563 25.3203L7.57016 22.6137V19.0607H2.94031V22.6137L3.77484 25.3203H6.73563Z" fill="#F5F5F5"/>
</g>
<defs>
<clipPath id="clip0_62_798">
<rect width="69.4479" height="75.116" fill="white" transform="matrix(-1 0 0 1 70.0732 4.66705)"/>
</clipPath>
</defs>
</svg>
