<svg width="21" height="22" viewBox="0 0 21 22" fill="none" xmlns="http://www.w3.org/2000/svg">
<g clip-path="url(#clip0_1_18)">
<path d="M10.5001 0.5C6.22248 0.5 2.74255 3.97992 2.74255 8.2575C2.74255 9.66571 3.37411 11.1802 3.40057 11.2441C3.60455 11.7283 4.00703 12.4803 4.29725 12.9211L9.61615 20.9802C9.83382 21.3106 10.156 21.5 10.5001 21.5C10.8441 21.5 11.1663 21.3106 11.384 20.9807L16.7033 12.9211C16.994 12.4803 17.396 11.7283 17.6 11.2441C17.6265 11.1807 18.2575 9.66617 18.2575 8.2575C18.2575 3.97992 14.7776 0.5 10.5001 0.5ZM16.7585 10.89C16.5765 11.324 16.2018 12.0235 15.9413 12.4187L10.6219 20.4783C10.5169 20.6375 10.4836 20.6375 10.3787 20.4783L5.05931 12.4187C4.79875 12.0235 4.42411 11.3235 4.24203 10.8896C4.23427 10.8709 3.6552 9.47679 3.6552 8.2575C3.6552 4.48325 6.7258 1.41265 10.5001 1.41265C14.2743 1.41265 17.3449 4.48325 17.3449 8.2575C17.3449 9.47862 16.7645 10.8763 16.7585 10.89Z" fill="#EA6F12"/>
<path d="M10.5001 4.15106C8.23537 4.15106 6.39319 5.9937 6.39319 8.25797C6.39319 10.5222 8.23537 12.3649 10.5001 12.3649C12.7648 12.3649 14.607 10.5222 14.607 8.25797C14.607 5.9937 12.7648 4.15106 10.5001 4.15106ZM10.5001 11.4522C8.73915 11.4522 7.30584 10.0194 7.30584 8.25797C7.30584 6.49656 8.73915 5.06371 10.5001 5.06371C12.2611 5.06371 13.6944 6.49656 13.6944 8.25797C13.6944 10.0194 12.2611 11.4522 10.5001 11.4522Z" fill="#EA6F12"/>
</g>
<defs>
<clipPath id="clip0_1_18">
<rect width="21" height="21" fill="white" transform="translate(0 0.5)"/>
</clipPath>
</defs>
</svg>
