<svg width="25" height="21" viewBox="0 0 25 21" fill="none" xmlns="http://www.w3.org/2000/svg">
<g clip-path="url(#clip0_1_35)">
<path d="M19.8101 13.0088C19.3199 12.5611 18.7285 12.3218 18.1018 12.3218C17.4802 12.3218 16.8838 12.5567 16.3733 13.0044L14.7763 14.4005C14.6449 14.3384 14.5134 14.2808 14.3871 14.2232C14.2052 14.1434 14.0333 14.0681 13.8867 13.9883C12.3907 13.155 11.0312 12.0692 9.72725 10.6642C9.0955 9.96387 8.67095 9.37439 8.36266 8.77604C8.77709 8.44363 9.1612 8.09792 9.5352 7.7655C9.67671 7.6414 9.81823 7.51287 9.95974 7.38877C11.0211 6.45801 11.0211 5.25245 9.95974 4.32169L8.57998 3.1117C8.42331 2.9743 8.26158 2.83247 8.10995 2.69064C7.80671 2.41585 7.4883 2.13219 7.15979 1.86625C6.66955 1.44076 6.08328 1.21472 5.46668 1.21472C4.85008 1.21472 4.25371 1.44076 3.7483 1.86625C3.74325 1.87069 3.74325 1.87069 3.73819 1.87512L2.01981 3.39536C1.37289 3.96268 1.00394 4.6541 0.923079 5.45633C0.801782 6.75053 1.23643 7.95609 1.57 8.74502C2.38876 10.6819 3.61184 12.4769 5.43636 14.4005C7.65003 16.7185 10.3135 18.549 13.3561 19.8388C14.5185 20.3219 16.0701 20.8937 17.8036 20.9912C17.9098 20.9956 18.021 21 18.122 21C19.2895 21 20.27 20.6322 21.0382 19.9008C21.0433 19.892 21.0534 19.8876 21.0585 19.8787C21.3213 19.5995 21.6245 19.3468 21.9429 19.0765C22.1602 18.8947 22.3826 18.7042 22.5999 18.5047C23.1003 18.0482 23.3631 17.5163 23.3631 16.9712C23.3631 16.4216 23.0952 15.8941 22.5848 15.4509L19.8101 13.0088ZM21.6195 17.6759C21.6144 17.6759 21.6144 17.6803 21.6195 17.6759C21.4223 17.862 21.2202 18.0305 21.0029 18.2166C20.6743 18.4914 20.3408 18.7795 20.0274 19.1031C19.517 19.5817 18.9155 19.8078 18.1271 19.8078C18.0513 19.8078 17.9704 19.8078 17.8946 19.8033C16.3936 19.7191 14.9986 19.205 13.9524 18.7662C11.0918 17.5518 8.57998 15.8277 6.49265 13.6426C4.76922 11.821 3.61689 10.1367 2.85373 8.32839C2.3837 7.22478 2.21186 6.36493 2.28768 5.55384C2.33822 5.03527 2.56565 4.60535 2.98514 4.23748L4.70857 2.7261C4.95622 2.52222 5.21903 2.41141 5.47679 2.41141C5.79519 2.41141 6.05295 2.57984 6.21468 2.72167C6.21974 2.7261 6.22479 2.73053 6.22984 2.73496C6.53814 2.9876 6.83128 3.2491 7.13957 3.52833C7.29625 3.67016 7.45798 3.81199 7.61971 3.95825L8.99947 5.16824C9.5352 5.63805 9.5352 6.07241 8.99947 6.54222C8.8529 6.67075 8.71139 6.79928 8.56482 6.92339C8.14028 7.30455 7.73595 7.65913 7.29625 8.00484C7.28614 8.01371 7.27603 8.01814 7.27098 8.027C6.83633 8.40817 6.9172 8.78048 7.00817 9.03311C7.01322 9.04641 7.01828 9.0597 7.02333 9.073C7.38217 9.83534 7.88758 10.5534 8.65579 11.4088L8.66085 11.4132C10.0558 12.9201 11.5265 14.0947 13.1489 14.9944C13.3561 15.1096 13.5683 15.2027 13.7705 15.2914C13.9524 15.3711 14.1243 15.4465 14.2709 15.5263C14.2911 15.5351 14.3113 15.5484 14.3315 15.5573C14.5033 15.6326 14.6651 15.6681 14.8319 15.6681C15.2513 15.6681 15.5142 15.4376 15.6001 15.3623L17.3286 13.8465C17.5004 13.6958 17.7733 13.5141 18.0917 13.5141C18.4051 13.5141 18.6628 13.6869 18.8195 13.8376C18.8246 13.842 18.8246 13.842 18.8296 13.8465L21.6144 16.2886C22.135 16.7407 22.135 17.2061 21.6195 17.6759Z" fill="#EA6F12"/>
<path d="M13.8263 4.99532C15.1504 5.19034 16.3533 5.73993 17.3136 6.58205C18.2738 7.42417 18.8955 8.47903 19.1229 9.64026C19.1785 9.93279 19.4666 10.1367 19.7951 10.1367C19.8356 10.1367 19.8709 10.1322 19.9114 10.1278C20.2854 10.0746 20.533 9.76437 20.4724 9.43638C20.1995 8.03138 19.4413 6.75047 18.284 5.7355C17.1266 4.72053 15.666 4.0557 14.0638 3.81636C13.6898 3.76317 13.3411 3.98035 13.2754 4.3039C13.2097 4.62745 13.4523 4.94214 13.8263 4.99532Z" fill="#EA6F12"/>
<path d="M24.8037 9.26354C24.3539 6.94994 23.1106 4.84465 21.2002 3.16928C19.2897 1.49391 16.889 0.403587 14.2508 0.00912211C13.8819 -0.0484964 13.5331 0.173113 13.4674 0.496664C13.4068 0.824646 13.6544 1.13047 14.0284 1.18809C16.3836 1.53823 18.5316 2.51774 20.2399 4.01139C21.9482 5.50948 23.0601 7.39316 23.4593 9.45856C23.5149 9.75109 23.803 9.95497 24.1315 9.95497C24.1719 9.95497 24.2073 9.95053 24.2478 9.9461C24.6167 9.89735 24.8694 9.58709 24.8037 9.26354Z" fill="#EA6F12"/>
</g>
<defs>
<clipPath id="clip0_1_35">
<rect width="23.9464" height="21" fill="white" transform="translate(0.885071)"/>
</clipPath>
</defs>
</svg>
