<svg xmlns="http://www.w3.org/2000/svg">

<symbol id="clock" width="16" height="16" viewBox="0 0 16 16" fill="none" xmlns="http://www.w3.org/2000/svg">
<g clip-path="url(#clip0_1_26)">
<path d="M10.5 4.59375C10.5 4.4197 10.4309 4.25278 10.3078 4.12971C10.1847 4.00664 10.0178 3.9375 9.84375 3.9375C9.6697 3.9375 9.50278 4.00664 9.37971 4.12971C9.25664 4.25278 9.1875 4.4197 9.1875 4.59375V11.8125C9.18754 11.9282 9.21815 12.0418 9.27623 12.1418C9.33432 12.2418 9.41781 12.3248 9.51825 12.3821L14.112 15.0071C14.2628 15.0886 14.4394 15.1079 14.6042 15.0608C14.7689 15.0138 14.9088 14.9042 14.9938 14.7554C15.0788 14.6066 15.1023 14.4305 15.0591 14.2646C15.016 14.0988 14.9097 13.9564 14.763 13.8679L10.5 11.4319V4.59375Z" fill="#EA6F12"/>
<path d="M10.5 21C13.2848 21 15.9555 19.8938 17.9246 17.9246C19.8938 15.9555 21 13.2848 21 10.5C21 7.71523 19.8938 5.04451 17.9246 3.07538C15.9555 1.10625 13.2848 0 10.5 0C7.71523 0 5.04451 1.10625 3.07538 3.07538C1.10625 5.04451 0 7.71523 0 10.5C0 13.2848 1.10625 15.9555 3.07538 17.9246C5.04451 19.8938 7.71523 21 10.5 21ZM19.6875 10.5C19.6875 12.9367 18.7195 15.2736 16.9965 16.9965C15.2736 18.7195 12.9367 19.6875 10.5 19.6875C8.06332 19.6875 5.72645 18.7195 4.00346 16.9965C2.28047 15.2736 1.3125 12.9367 1.3125 10.5C1.3125 8.06332 2.28047 5.72645 4.00346 4.00346C5.72645 2.28047 8.06332 1.3125 10.5 1.3125C12.9367 1.3125 15.2736 2.28047 16.9965 4.00346C18.7195 5.72645 19.6875 8.06332 19.6875 10.5Z" fill="#EA6F12"/>
</g>
<defs>
<clipPath id="clip0_1_26">
<rect width="21" height="21" fill="white"/>
</clipPath>
</defs>
</symbol>

<symbol id="marker" width="16" height="16" viewBox="0 0 16 16" fill="none" xmlns="http://www.w3.org/2000/svg">
<g clip-path="url(#clip0_1_18)">
<path d="M10.5001 0.5C6.22248 0.5 2.74255 3.97992 2.74255 8.2575C2.74255 9.66571 3.37411 11.1802 3.40057 11.2441C3.60455 11.7283 4.00703 12.4803 4.29725 12.9211L9.61615 20.9802C9.83382 21.3106 10.156 21.5 10.5001 21.5C10.8441 21.5 11.1663 21.3106 11.384 20.9807L16.7033 12.9211C16.994 12.4803 17.396 11.7283 17.6 11.2441C17.6265 11.1807 18.2575 9.66617 18.2575 8.2575C18.2575 3.97992 14.7776 0.5 10.5001 0.5ZM16.7585 10.89C16.5765 11.324 16.2018 12.0235 15.9413 12.4187L10.6219 20.4783C10.5169 20.6375 10.4836 20.6375 10.3787 20.4783L5.05931 12.4187C4.79875 12.0235 4.42411 11.3235 4.24203 10.8896C4.23427 10.8709 3.6552 9.47679 3.6552 8.2575C3.6552 4.48325 6.7258 1.41265 10.5001 1.41265C14.2743 1.41265 17.3449 4.48325 17.3449 8.2575C17.3449 9.47862 16.7645 10.8763 16.7585 10.89Z" fill="#EA6F12"/>
<path d="M10.5001 4.15106C8.23537 4.15106 6.39319 5.9937 6.39319 8.25797C6.39319 10.5222 8.23537 12.3649 10.5001 12.3649C12.7648 12.3649 14.607 10.5222 14.607 8.25797C14.607 5.9937 12.7648 4.15106 10.5001 4.15106ZM10.5001 11.4522C8.73915 11.4522 7.30584 10.0194 7.30584 8.25797C7.30584 6.49656 8.73915 5.06371 10.5001 5.06371C12.2611 5.06371 13.6944 6.49656 13.6944 8.25797C13.6944 10.0194 12.2611 11.4522 10.5001 11.4522Z" fill="#EA6F12"/>
</g>
<defs>
<clipPath id="clip0_1_18">
<rect width="21" height="21" fill="white" transform="translate(0 0.5)"/>
</clipPath>
</defs>
</symbol>

<symbol id="whatsapp" width="24" height="25" viewBox="0 0 24 25" fill="none" xmlns="http://www.w3.org/2000/svg">
<path fill-rule="evenodd" clip-rule="evenodd" d="M17.415 14.882C17.117 14.733 15.656 14.015 15.384 13.915C15.112 13.816 14.914 13.767 14.715 14.065C14.517 14.361 13.948 15.031 13.775 15.229C13.601 15.428 13.428 15.452 13.131 15.304C12.834 15.154 11.876 14.841 10.741 13.829C9.858 13.041 9.261 12.068 9.088 11.77C8.915 11.473 9.069 11.312 9.218 11.164C9.352 11.031 9.515 10.817 9.664 10.644C9.813 10.47 9.862 10.346 9.961 10.147C10.061 9.94898 10.011 9.77598 9.936 9.62698C9.862 9.47798 9.268 8.01498 9.02 7.41998C8.779 6.84098 8.534 6.91998 8.352 6.90998C8.178 6.90198 7.98 6.89998 7.782 6.89998C7.584 6.89998 7.262 6.97398 6.99 7.27198C6.717 7.56898 5.95 8.28798 5.95 9.75098C5.95 11.213 7.014 12.626 7.163 12.825C7.312 13.023 9.258 16.025 12.239 17.312C12.949 17.618 13.502 17.801 13.933 17.937C14.645 18.164 15.293 18.132 15.805 18.055C16.375 17.97 17.563 17.336 17.811 16.642C18.058 15.948 18.058 15.353 17.984 15.229C17.91 15.105 17.712 15.031 17.414 14.882H17.415ZM11.993 22.285H11.989C10.2184 22.2853 8.48037 21.8093 6.957 20.907L6.597 20.693L2.855 21.675L3.854 18.027L3.619 17.653C2.62914 16.0773 2.1053 14.2538 2.108 12.393C2.11 6.94298 6.544 2.50898 11.997 2.50898C14.637 2.50898 17.119 3.53898 18.985 5.40698C19.9054 6.32356 20.6349 7.41355 21.1313 8.61388C21.6277 9.81421 21.8811 11.1011 21.877 12.4C21.875 17.85 17.441 22.285 11.993 22.285ZM20.405 3.98798C19.3032 2.8789 17.9922 1.99952 16.5481 1.40078C15.1039 0.802044 13.5553 0.495863 11.992 0.49998C5.438 0.49998 0.102 5.83498 0.1 12.392C0.099 14.488 0.646 16.534 1.687 18.337L0 24.5L6.304 22.846C8.04788 23.7961 10.0021 24.2939 11.988 24.294H11.993C18.547 24.294 23.883 18.959 23.885 12.401C23.8898 10.8383 23.5848 9.29008 22.9874 7.84601C22.3901 6.40195 21.5124 5.09065 20.405 3.98798Z" fill="#F5F5F5"/>
</symbol>

<symbol id="viber" width="30" height="29" viewBox="0 0 30 29" fill="none" xmlns="http://www.w3.org/2000/svg">
<path fill-rule="evenodd" clip-rule="evenodd" d="M14.6555 2.1C13.8375 2.1044 13.0172 2.15064 12.1899 2.24531C10.6078 2.42805 9.03986 2.73189 7.53517 3.38139C5.1422 4.41399 3.44533 6.16655 2.95314 8.71392C2.74454 9.78835 2.57579 10.8782 2.4797 11.9746C2.29454 14.1037 2.40939 16.2393 3.05158 18.3376C3.55783 19.9911 4.49064 21.4772 6.12423 22.4415C6.81564 22.8489 7.72736 23.047 8.20314 23.254C8.33673 23.3134 8.36954 23.3486 8.37658 23.3575C8.38361 23.3641 8.40236 23.3795 8.40001 23.5116C8.38361 24.859 8.40001 27.4658 8.40001 27.4658L8.40236 28.0273H9.47345L9.64689 27.8687C9.64689 27.8687 12.368 25.4094 13.3524 24.3967C13.5305 24.2161 13.6219 24.1148 13.6406 24.1038C13.657 24.0928 13.6289 24.0862 13.8117 24.0818C15.1031 24.0576 16.3922 24.0114 17.6813 23.9453C19.3805 23.8572 21.1125 23.7053 22.7789 23.0514C24.2297 22.4812 25.4414 21.5499 26.175 20.154C26.925 18.7229 27.3258 17.2059 27.4758 15.6361C27.7242 13.0227 27.6375 10.4048 26.8688 7.82443C26.4164 6.31186 25.507 5.03267 24.1125 4.12997C22.4438 3.05114 20.5617 2.64602 18.7195 2.38842C17.6438 2.23871 16.5609 2.13963 15.4734 2.10881C15.2016 2.1022 14.9297 2.0978 14.6555 2.1ZM15.4406 3.23608C16.4742 3.2625 17.5078 3.35717 18.5438 3.50248C20.3203 3.75128 21.9961 4.12997 23.4328 5.05909C24.5977 5.81207 25.3242 6.82926 25.7133 8.12606C26.4305 10.5391 26.5219 13.0116 26.2805 15.537C26.1422 16.9923 25.7742 18.364 25.0969 19.6564C24.4992 20.7969 23.5664 21.5212 22.3149 22.0122C20.8617 22.5825 19.282 22.7344 17.618 22.8202C16.343 22.8863 15.0656 22.9303 13.7883 22.9545C13.4672 22.9611 13.1531 23.0404 12.9305 23.1945C12.7078 23.3486 12.607 23.4918 12.4688 23.6327C11.7656 24.3548 10.3641 25.6252 9.60001 26.3209C9.59532 25.4799 9.58829 24.4627 9.60001 23.5248C9.6047 23.2364 9.53439 22.9413 9.35861 22.708C9.18283 22.4746 8.94142 22.3337 8.70939 22.2324C8.03204 21.9374 7.14611 21.7128 6.76173 21.486C5.41876 20.6934 4.65704 19.5045 4.2047 18.0249C3.61173 16.0896 3.49923 14.0971 3.67501 12.0693C3.76876 11.0169 3.93048 9.96229 4.13439 8.91648C4.56095 6.71257 5.90158 5.3255 8.03439 4.40518C9.38204 3.82393 10.8211 3.53771 12.3375 3.36378C13.3711 3.24489 14.4047 3.20746 15.4406 3.23608ZM15.6938 6.04545C15.1992 6.04545 14.7188 6.09829 14.2524 6.19517C13.9313 6.26562 13.7274 6.56726 13.8 6.87109C13.8727 7.17493 14.1961 7.36427 14.5195 7.29602C14.8969 7.21456 15.2906 7.17273 15.6938 7.17273C18.6234 7.17273 20.9859 9.39205 20.9859 12.142C20.9859 12.5229 20.9414 12.8928 20.8547 13.2494C20.782 13.5511 20.9836 13.8549 21.307 13.9232C21.6305 13.9914 21.9516 13.7999 22.0242 13.496C22.1297 13.0601 22.1859 12.6087 22.1859 12.142C22.1859 8.78217 19.2727 6.04545 15.6938 6.04545ZM9.70782 7.17493C9.60939 7.17052 9.50861 7.17713 9.40314 7.19915C8.31329 7.42592 7.23048 8.1679 7.20001 9.49332C7.23048 9.67827 7.22814 9.87642 7.30079 10.0437C7.65704 10.8628 7.96642 11.7082 8.41173 12.4832C10.5797 16.2482 13.8586 18.866 18.0375 20.5283C18.5367 20.7264 19.0524 20.7683 19.5563 20.5701C20.25 20.2993 20.8383 19.881 21.2297 19.2799C21.7664 18.4543 21.7734 17.8818 20.8899 17.2719C20.3109 16.8712 19.7414 16.4595 19.1555 16.0676C18.2625 15.4732 17.2969 15.3697 16.6313 16.4133C16.5961 16.4661 16.5445 16.5102 16.5 16.5542C16.1578 16.8955 15.7383 16.9791 15.293 16.8074C13.6031 16.1535 12.2977 15.0989 11.5102 13.529C11.0461 12.6065 11.1727 12.1442 12.0399 11.5299C12.1266 11.4705 12.2086 11.4066 12.2883 11.3384C12.668 11.0125 12.7688 10.625 12.5438 10.1869C12.0352 9.18729 11.3578 8.2956 10.5 7.5272C10.268 7.32024 10.0031 7.19034 9.70782 7.17493ZM15.6844 7.73636C15.4195 7.73636 15.157 7.75618 14.8992 7.79801C14.6813 7.82443 14.4961 7.96094 14.4164 8.15248C14.3367 8.34623 14.3766 8.5642 14.5172 8.72273C14.6602 8.87905 14.8852 8.9517 15.1008 8.90767C15.2883 8.87905 15.4852 8.86364 15.6844 8.86364C17.6344 8.86364 19.2 10.3344 19.2 12.1662C19.2 12.3533 19.1836 12.5383 19.1531 12.7144C19.1063 12.917 19.1836 13.1283 19.35 13.2626C19.5188 13.3947 19.7508 13.4322 19.957 13.3573C20.1609 13.2825 20.3063 13.1085 20.3344 12.9038C20.3789 12.6616 20.4 12.415 20.4 12.1662C20.4 9.7267 18.2813 7.73636 15.6844 7.73636ZM15.6 9.42727C15.3844 9.42507 15.1828 9.53075 15.0727 9.70689C14.9649 9.88302 14.9649 10.0988 15.0727 10.2749C15.1828 10.4511 15.3844 10.5567 15.6 10.5545C16.6008 10.5545 17.4 11.3053 17.4 12.2455C17.3977 12.448 17.5102 12.6374 17.6977 12.7408C17.8852 12.8421 18.1149 12.8421 18.3024 12.7408C18.4899 12.6374 18.6024 12.448 18.6 12.2455C18.6 10.6955 17.25 9.42727 15.6 9.42727Z" fill="#E7E7E7"/>
</symbol>

<symbol id="phone" width="25" height="21" viewBox="0 0 25 21" fill="none" xmlns="http://www.w3.org/2000/svg">
<g clip-path="url(#clip0_1_35)">
<path d="M19.8101 13.0088C19.3199 12.5611 18.7285 12.3218 18.1018 12.3218C17.4802 12.3218 16.8838 12.5567 16.3733 13.0044L14.7763 14.4005C14.6449 14.3384 14.5134 14.2808 14.3871 14.2232C14.2052 14.1434 14.0333 14.0681 13.8867 13.9883C12.3907 13.155 11.0312 12.0692 9.72725 10.6642C9.0955 9.96387 8.67095 9.37439 8.36266 8.77604C8.77709 8.44363 9.1612 8.09792 9.5352 7.7655C9.67671 7.6414 9.81823 7.51287 9.95974 7.38877C11.0211 6.45801 11.0211 5.25245 9.95974 4.32169L8.57998 3.1117C8.42331 2.9743 8.26158 2.83247 8.10995 2.69064C7.80671 2.41585 7.4883 2.13219 7.15979 1.86625C6.66955 1.44076 6.08328 1.21472 5.46668 1.21472C4.85008 1.21472 4.25371 1.44076 3.7483 1.86625C3.74325 1.87069 3.74325 1.87069 3.73819 1.87512L2.01981 3.39536C1.37289 3.96268 1.00394 4.6541 0.923079 5.45633C0.801782 6.75053 1.23643 7.95609 1.57 8.74502C2.38876 10.6819 3.61184 12.4769 5.43636 14.4005C7.65003 16.7185 10.3135 18.549 13.3561 19.8388C14.5185 20.3219 16.0701 20.8937 17.8036 20.9912C17.9098 20.9956 18.021 21 18.122 21C19.2895 21 20.27 20.6322 21.0382 19.9008C21.0433 19.892 21.0534 19.8876 21.0585 19.8787C21.3213 19.5995 21.6245 19.3468 21.9429 19.0765C22.1602 18.8947 22.3826 18.7042 22.5999 18.5047C23.1003 18.0482 23.3631 17.5163 23.3631 16.9712C23.3631 16.4216 23.0952 15.8941 22.5848 15.4509L19.8101 13.0088ZM21.6195 17.6759C21.6144 17.6759 21.6144 17.6803 21.6195 17.6759C21.4223 17.862 21.2202 18.0305 21.0029 18.2166C20.6743 18.4914 20.3408 18.7795 20.0274 19.1031C19.517 19.5817 18.9155 19.8078 18.1271 19.8078C18.0513 19.8078 17.9704 19.8078 17.8946 19.8033C16.3936 19.7191 14.9986 19.205 13.9524 18.7662C11.0918 17.5518 8.57998 15.8277 6.49265 13.6426C4.76922 11.821 3.61689 10.1367 2.85373 8.32839C2.3837 7.22478 2.21186 6.36493 2.28768 5.55384C2.33822 5.03527 2.56565 4.60535 2.98514 4.23748L4.70857 2.7261C4.95622 2.52222 5.21903 2.41141 5.47679 2.41141C5.79519 2.41141 6.05295 2.57984 6.21468 2.72167C6.21974 2.7261 6.22479 2.73053 6.22984 2.73496C6.53814 2.9876 6.83128 3.2491 7.13957 3.52833C7.29625 3.67016 7.45798 3.81199 7.61971 3.95825L8.99947 5.16824C9.5352 5.63805 9.5352 6.07241 8.99947 6.54222C8.8529 6.67075 8.71139 6.79928 8.56482 6.92339C8.14028 7.30455 7.73595 7.65913 7.29625 8.00484C7.28614 8.01371 7.27603 8.01814 7.27098 8.027C6.83633 8.40817 6.9172 8.78048 7.00817 9.03311C7.01322 9.04641 7.01828 9.0597 7.02333 9.073C7.38217 9.83534 7.88758 10.5534 8.65579 11.4088L8.66085 11.4132C10.0558 12.9201 11.5265 14.0947 13.1489 14.9944C13.3561 15.1096 13.5683 15.2027 13.7705 15.2914C13.9524 15.3711 14.1243 15.4465 14.2709 15.5263C14.2911 15.5351 14.3113 15.5484 14.3315 15.5573C14.5033 15.6326 14.6651 15.6681 14.8319 15.6681C15.2513 15.6681 15.5142 15.4376 15.6001 15.3623L17.3286 13.8465C17.5004 13.6958 17.7733 13.5141 18.0917 13.5141C18.4051 13.5141 18.6628 13.6869 18.8195 13.8376C18.8246 13.842 18.8246 13.842 18.8296 13.8465L21.6144 16.2886C22.135 16.7407 22.135 17.2061 21.6195 17.6759Z" fill="#EA6F12"/>
<path d="M13.8263 4.99532C15.1504 5.19034 16.3533 5.73993 17.3136 6.58205C18.2738 7.42417 18.8955 8.47903 19.1229 9.64026C19.1785 9.93279 19.4666 10.1367 19.7951 10.1367C19.8356 10.1367 19.8709 10.1322 19.9114 10.1278C20.2854 10.0746 20.533 9.76437 20.4724 9.43638C20.1995 8.03138 19.4413 6.75047 18.284 5.7355C17.1266 4.72053 15.666 4.0557 14.0638 3.81636C13.6898 3.76317 13.3411 3.98035 13.2754 4.3039C13.2097 4.62745 13.4523 4.94214 13.8263 4.99532Z" fill="#EA6F12"/>
<path d="M24.8037 9.26354C24.3539 6.94994 23.1106 4.84465 21.2002 3.16928C19.2897 1.49391 16.889 0.403587 14.2508 0.00912211C13.8819 -0.0484964 13.5331 0.173113 13.4674 0.496664C13.4068 0.824646 13.6544 1.13047 14.0284 1.18809C16.3836 1.53823 18.5316 2.51774 20.2399 4.01139C21.9482 5.50948 23.0601 7.39316 23.4593 9.45856C23.5149 9.75109 23.803 9.95497 24.1315 9.95497C24.1719 9.95497 24.2073 9.95053 24.2478 9.9461C24.6167 9.89735 24.8694 9.58709 24.8037 9.26354Z" fill="#EA6F12"/>
</g>
<defs>
<clipPath id="clip0_1_35">
<rect width="23.9464" height="21" fill="white" transform="translate(0.885071)"/>
</clipPath>
</defs>
</symbol>
</svg>
