<svg xmlns="http://www.w3.org/2000/svg">

<symbol id="clock" width="16" height="16" viewBox="0 0 16 16" fill="none" xmlns="http://www.w3.org/2000/svg">
<g clip-path="url(#clip0_1_26)">
<path d="M10.5 4.59375C10.5 4.4197 10.4309 4.25278 10.3078 4.12971C10.1847 4.00664 10.0178 3.9375 9.84375 3.9375C9.6697 3.9375 9.50278 4.00664 9.37971 4.12971C9.25664 4.25278 9.1875 4.4197 9.1875 4.59375V11.8125C9.18754 11.9282 9.21815 12.0418 9.27623 12.1418C9.33432 12.2418 9.41781 12.3248 9.51825 12.3821L14.112 15.0071C14.2628 15.0886 14.4394 15.1079 14.6042 15.0608C14.7689 15.0138 14.9088 14.9042 14.9938 14.7554C15.0788 14.6066 15.1023 14.4305 15.0591 14.2646C15.016 14.0988 14.9097 13.9564 14.763 13.8679L10.5 11.4319V4.59375Z" fill="#EA6F12"/>
<path d="M10.5 21C13.2848 21 15.9555 19.8938 17.9246 17.9246C19.8938 15.9555 21 13.2848 21 10.5C21 7.71523 19.8938 5.04451 17.9246 3.07538C15.9555 1.10625 13.2848 0 10.5 0C7.71523 0 5.04451 1.10625 3.07538 3.07538C1.10625 5.04451 0 7.71523 0 10.5C0 13.2848 1.10625 15.9555 3.07538 17.9246C5.04451 19.8938 7.71523 21 10.5 21ZM19.6875 10.5C19.6875 12.9367 18.7195 15.2736 16.9965 16.9965C15.2736 18.7195 12.9367 19.6875 10.5 19.6875C8.06332 19.6875 5.72645 18.7195 4.00346 16.9965C2.28047 15.2736 1.3125 12.9367 1.3125 10.5C1.3125 8.06332 2.28047 5.72645 4.00346 4.00346C5.72645 2.28047 8.06332 1.3125 10.5 1.3125C12.9367 1.3125 15.2736 2.28047 16.9965 4.00346C18.7195 5.72645 19.6875 8.06332 19.6875 10.5Z" fill="#EA6F12"/>
</g>
<defs>
<clipPath id="clip0_1_26">
<rect width="21" height="21" fill="white"/>
</clipPath>
</defs>
</symbol>

<symbol id="marker" width="16" height="16" viewBox="0 0 16 16" fill="none" xmlns="http://www.w3.org/2000/svg">
<g clip-path="url(#clip0_1_18)">
<path d="M10.5001 0.5C6.22248 0.5 2.74255 3.97992 2.74255 8.2575C2.74255 9.66571 3.37411 11.1802 3.40057 11.2441C3.60455 11.7283 4.00703 12.4803 4.29725 12.9211L9.61615 20.9802C9.83382 21.3106 10.156 21.5 10.5001 21.5C10.8441 21.5 11.1663 21.3106 11.384 20.9807L16.7033 12.9211C16.994 12.4803 17.396 11.7283 17.6 11.2441C17.6265 11.1807 18.2575 9.66617 18.2575 8.2575C18.2575 3.97992 14.7776 0.5 10.5001 0.5ZM16.7585 10.89C16.5765 11.324 16.2018 12.0235 15.9413 12.4187L10.6219 20.4783C10.5169 20.6375 10.4836 20.6375 10.3787 20.4783L5.05931 12.4187C4.79875 12.0235 4.42411 11.3235 4.24203 10.8896C4.23427 10.8709 3.6552 9.47679 3.6552 8.2575C3.6552 4.48325 6.7258 1.41265 10.5001 1.41265C14.2743 1.41265 17.3449 4.48325 17.3449 8.2575C17.3449 9.47862 16.7645 10.8763 16.7585 10.89Z" fill="#EA6F12"/>
<path d="M10.5001 4.15106C8.23537 4.15106 6.39319 5.9937 6.39319 8.25797C6.39319 10.5222 8.23537 12.3649 10.5001 12.3649C12.7648 12.3649 14.607 10.5222 14.607 8.25797C14.607 5.9937 12.7648 4.15106 10.5001 4.15106ZM10.5001 11.4522C8.73915 11.4522 7.30584 10.0194 7.30584 8.25797C7.30584 6.49656 8.73915 5.06371 10.5001 5.06371C12.2611 5.06371 13.6944 6.49656 13.6944 8.25797C13.6944 10.0194 12.2611 11.4522 10.5001 11.4522Z" fill="#EA6F12"/>
</g>
<defs>
<clipPath id="clip0_1_18">
<rect width="21" height="21" fill="white" transform="translate(0 0.5)"/>
</clipPath>
</defs>
</symbol>

<symbol id="whatsapp" width="24" height="25" viewBox="0 0 24 25" fill="none" xmlns="http://www.w3.org/2000/svg">
<path fill-rule="evenodd" clip-rule="evenodd" d="M17.415 14.882C17.117 14.733 15.656 14.015 15.384 13.915C15.112 13.816 14.914 13.767 14.715 14.065C14.517 14.361 13.948 15.031 13.775 15.229C13.601 15.428 13.428 15.452 13.131 15.304C12.834 15.154 11.876 14.841 10.741 13.829C9.858 13.041 9.261 12.068 9.088 11.77C8.915 11.473 9.069 11.312 9.218 11.164C9.352 11.031 9.515 10.817 9.664 10.644C9.813 10.47 9.862 10.346 9.961 10.147C10.061 9.94898 10.011 9.77598 9.936 9.62698C9.862 9.47798 9.268 8.01498 9.02 7.41998C8.779 6.84098 8.534 6.91998 8.352 6.90998C8.178 6.90198 7.98 6.89998 7.782 6.89998C7.584 6.89998 7.262 6.97398 6.99 7.27198C6.717 7.56898 5.95 8.28798 5.95 9.75098C5.95 11.213 7.014 12.626 7.163 12.825C7.312 13.023 9.258 16.025 12.239 17.312C12.949 17.618 13.502 17.801 13.933 17.937C14.645 18.164 15.293 18.132 15.805 18.055C16.375 17.97 17.563 17.336 17.811 16.642C18.058 15.948 18.058 15.353 17.984 15.229C17.91 15.105 17.712 15.031 17.414 14.882H17.415ZM11.993 22.285H11.989C10.2184 22.2853 8.48037 21.8093 6.957 20.907L6.597 20.693L2.855 21.675L3.854 18.027L3.619 17.653C2.62914 16.0773 2.1053 14.2538 2.108 12.393C2.11 6.94298 6.544 2.50898 11.997 2.50898C14.637 2.50898 17.119 3.53898 18.985 5.40698C19.9054 6.32356 20.6349 7.41355 21.1313 8.61388C21.6277 9.81421 21.8811 11.1011 21.877 12.4C21.875 17.85 17.441 22.285 11.993 22.285ZM20.405 3.98798C19.3032 2.8789 17.9922 1.99952 16.5481 1.40078C15.1039 0.802044 13.5553 0.495863 11.992 0.49998C5.438 0.49998 0.102 5.83498 0.1 12.392C0.099 14.488 0.646 16.534 1.687 18.337L0 24.5L6.304 22.846C8.04788 23.7961 10.0021 24.2939 11.988 24.294H11.993C18.547 24.294 23.883 18.959 23.885 12.401C23.8898 10.8383 23.5848 9.29008 22.9874 7.84601C22.3901 6.40195 21.5124 5.09065 20.405 3.98798Z" fill="#F5F5F5"/>
</symbol>

<symbol id="viber" width="30" height="29" viewBox="0 0 30 29" fill="none" xmlns="http://www.w3.org/2000/svg">
<path fill-rule="evenodd" clip-rule="evenodd" d="M14.6555 2.1C13.8375 2.1044 13.0172 2.15064 12.1899 2.24531C10.6078 2.42805 9.03986 2.73189 7.53517 3.38139C5.1422 4.41399 3.44533 6.16655 2.95314 8.71392C2.74454 9.78835 2.57579 10.8782 2.4797 11.9746C2.29454 14.1037 2.40939 16.2393 3.05158 18.3376C3.55783 19.9911 4.49064 21.4772 6.12423 22.4415C6.81564 22.8489 7.72736 23.047 8.20314 23.254C8.33673 23.3134 8.36954 23.3486 8.37658 23.3575C8.38361 23.3641 8.40236 23.3795 8.40001 23.5116C8.38361 24.859 8.40001 27.4658 8.40001 27.4658L8.40236 28.0273H9.47345L9.64689 27.8687C9.64689 27.8687 12.368 25.4094 13.3524 24.3967C13.5305 24.2161 13.6219 24.1148 13.6406 24.1038C13.657 24.0928 13.6289 24.0862 13.8117 24.0818C15.1031 24.0576 16.3922 24.0114 17.6813 23.9453C19.3805 23.8572 21.1125 23.7053 22.7789 23.0514C24.2297 22.4812 25.4414 21.5499 26.175 20.154C26.925 18.7229 27.3258 17.2059 27.4758 15.6361C27.7242 13.0227 27.6375 10.4048 26.8688 7.82443C26.4164 6.31186 25.507 5.03267 24.1125 4.12997C22.4438 3.05114 20.5617 2.64602 18.7195 2.38842C17.6438 2.23871 16.5609 2.13963 15.4734 2.10881C15.2016 2.1022 14.9297 2.0978 14.6555 2.1ZM15.4406 3.23608C16.4742 3.2625 17.5078 3.35717 18.5438 3.50248C20.3203 3.75128 21.9961 4.12997 23.4328 5.05909C24.5977 5.81207 25.3242 6.82926 25.7133 8.12606C26.4305 10.5391 26.5219 13.0116 26.2805 15.537C26.1422 16.9923 25.7742 18.364 25.0969 19.6564C24.4992 20.7969 23.5664 21.5212 22.3149 22.0122C20.8617 22.5825 19.282 22.7344 17.618 22.8202C16.343 22.8863 15.0656 22.9303 13.7883 22.9545C13.4672 22.9611 13.1531 23.0404 12.9305 23.1945C12.7078 23.3486 12.607 23.4918 12.4688 23.6327C11.7656 24.3548 10.3641 25.6252 9.60001 26.3209C9.59532 25.4799 9.58829 24.4627 9.60001 23.5248C9.6047 23.2364 9.53439 22.9413 9.35861 22.708C9.18283 22.4746 8.94142 22.3337 8.70939 22.2324C8.03204 21.9374 7.14611 21.7128 6.76173 21.486C5.41876 20.6934 4.65704 19.5045 4.2047 18.0249C3.61173 16.0896 3.49923 14.0971 3.67501 12.0693C3.76876 11.0169 3.93048 9.96229 4.13439 8.91648C4.56095 6.71257 5.90158 5.3255 8.03439 4.40518C9.38204 3.82393 10.8211 3.53771 12.3375 3.36378C13.3711 3.24489 14.4047 3.20746 15.4406 3.23608ZM15.6938 6.04545C15.1992 6.04545 14.7188 6.09829 14.2524 6.19517C13.9313 6.26562 13.7274 6.56726 13.8 6.87109C13.8727 7.17493 14.1961 7.36427 14.5195 7.29602C14.8969 7.21456 15.2906 7.17273 15.6938 7.17273C18.6234 7.17273 20.9859 9.39205 20.9859 12.142C20.9859 12.5229 20.9414 12.8928 20.8547 13.2494C20.782 13.5511 20.9836 13.8549 21.307 13.9232C21.6305 13.9914 21.9516 13.7999 22.0242 13.496C22.1297 13.0601 22.1859 12.6087 22.1859 12.142C22.1859 8.78217 19.2727 6.04545 15.6938 6.04545ZM9.70782 7.17493C9.60939 7.17052 9.50861 7.17713 9.40314 7.19915C8.31329 7.42592 7.23048 8.1679 7.20001 9.49332C7.23048 9.67827 7.22814 9.87642 7.30079 10.0437C7.65704 10.8628 7.96642 11.7082 8.41173 12.4832C10.5797 16.2482 13.8586 18.866 18.0375 20.5283C18.5367 20.7264 19.0524 20.7683 19.5563 20.5701C20.25 20.2993 20.8383 19.881 21.2297 19.2799C21.7664 18.4543 21.7734 17.8818 20.8899 17.2719C20.3109 16.8712 19.7414 16.4595 19.1555 16.0676C18.2625 15.4732 17.2969 15.3697 16.6313 16.4133C16.5961 16.4661 16.5445 16.5102 16.5 16.5542C16.1578 16.8955 15.7383 16.9791 15.293 16.8074C13.6031 16.1535 12.2977 15.0989 11.5102 13.529C11.0461 12.6065 11.1727 12.1442 12.0399 11.5299C12.1266 11.4705 12.2086 11.4066 12.2883 11.3384C12.668 11.0125 12.7688 10.625 12.5438 10.1869C12.0352 9.18729 11.3578 8.2956 10.5 7.5272C10.268 7.32024 10.0031 7.19034 9.70782 7.17493ZM15.6844 7.73636C15.4195 7.73636 15.157 7.75618 14.8992 7.79801C14.6813 7.82443 14.4961 7.96094 14.4164 8.15248C14.3367 8.34623 14.3766 8.5642 14.5172 8.72273C14.6602 8.87905 14.8852 8.9517 15.1008 8.90767C15.2883 8.87905 15.4852 8.86364 15.6844 8.86364C17.6344 8.86364 19.2 10.3344 19.2 12.1662C19.2 12.3533 19.1836 12.5383 19.1531 12.7144C19.1063 12.917 19.1836 13.1283 19.35 13.2626C19.5188 13.3947 19.7508 13.4322 19.957 13.3573C20.1609 13.2825 20.3063 13.1085 20.3344 12.9038C20.3789 12.6616 20.4 12.415 20.4 12.1662C20.4 9.7267 18.2813 7.73636 15.6844 7.73636ZM15.6 9.42727C15.3844 9.42507 15.1828 9.53075 15.0727 9.70689C14.9649 9.88302 14.9649 10.0988 15.0727 10.2749C15.1828 10.4511 15.3844 10.5567 15.6 10.5545C16.6008 10.5545 17.4 11.3053 17.4 12.2455C17.3977 12.448 17.5102 12.6374 17.6977 12.7408C17.8852 12.8421 18.1149 12.8421 18.3024 12.7408C18.4899 12.6374 18.6024 12.448 18.6 12.2455C18.6 10.6955 17.25 9.42727 15.6 9.42727Z" fill="#E7E7E7"/>
</symbol>

<symbol id="phone" width="25" height="21" viewBox="0 0 25 21" fill="none" xmlns="http://www.w3.org/2000/svg">
<g clip-path="url(#clip0_1_35)">
<path d="M19.8101 13.0088C19.3199 12.5611 18.7285 12.3218 18.1018 12.3218C17.4802 12.3218 16.8838 12.5567 16.3733 13.0044L14.7763 14.4005C14.6449 14.3384 14.5134 14.2808 14.3871 14.2232C14.2052 14.1434 14.0333 14.0681 13.8867 13.9883C12.3907 13.155 11.0312 12.0692 9.72725 10.6642C9.0955 9.96387 8.67095 9.37439 8.36266 8.77604C8.77709 8.44363 9.1612 8.09792 9.5352 7.7655C9.67671 7.6414 9.81823 7.51287 9.95974 7.38877C11.0211 6.45801 11.0211 5.25245 9.95974 4.32169L8.57998 3.1117C8.42331 2.9743 8.26158 2.83247 8.10995 2.69064C7.80671 2.41585 7.4883 2.13219 7.15979 1.86625C6.66955 1.44076 6.08328 1.21472 5.46668 1.21472C4.85008 1.21472 4.25371 1.44076 3.7483 1.86625C3.74325 1.87069 3.74325 1.87069 3.73819 1.87512L2.01981 3.39536C1.37289 3.96268 1.00394 4.6541 0.923079 5.45633C0.801782 6.75053 1.23643 7.95609 1.57 8.74502C2.38876 10.6819 3.61184 12.4769 5.43636 14.4005C7.65003 16.7185 10.3135 18.549 13.3561 19.8388C14.5185 20.3219 16.0701 20.8937 17.8036 20.9912C17.9098 20.9956 18.021 21 18.122 21C19.2895 21 20.27 20.6322 21.0382 19.9008C21.0433 19.892 21.0534 19.8876 21.0585 19.8787C21.3213 19.5995 21.6245 19.3468 21.9429 19.0765C22.1602 18.8947 22.3826 18.7042 22.5999 18.5047C23.1003 18.0482 23.3631 17.5163 23.3631 16.9712C23.3631 16.4216 23.0952 15.8941 22.5848 15.4509L19.8101 13.0088ZM21.6195 17.6759C21.6144 17.6759 21.6144 17.6803 21.6195 17.6759C21.4223 17.862 21.2202 18.0305 21.0029 18.2166C20.6743 18.4914 20.3408 18.7795 20.0274 19.1031C19.517 19.5817 18.9155 19.8078 18.1271 19.8078C18.0513 19.8078 17.9704 19.8078 17.8946 19.8033C16.3936 19.7191 14.9986 19.205 13.9524 18.7662C11.0918 17.5518 8.57998 15.8277 6.49265 13.6426C4.76922 11.821 3.61689 10.1367 2.85373 8.32839C2.3837 7.22478 2.21186 6.36493 2.28768 5.55384C2.33822 5.03527 2.56565 4.60535 2.98514 4.23748L4.70857 2.7261C4.95622 2.52222 5.21903 2.41141 5.47679 2.41141C5.79519 2.41141 6.05295 2.57984 6.21468 2.72167C6.21974 2.7261 6.22479 2.73053 6.22984 2.73496C6.53814 2.9876 6.83128 3.2491 7.13957 3.52833C7.29625 3.67016 7.45798 3.81199 7.61971 3.95825L8.99947 5.16824C9.5352 5.63805 9.5352 6.07241 8.99947 6.54222C8.8529 6.67075 8.71139 6.79928 8.56482 6.92339C8.14028 7.30455 7.73595 7.65913 7.29625 8.00484C7.28614 8.01371 7.27603 8.01814 7.27098 8.027C6.83633 8.40817 6.9172 8.78048 7.00817 9.03311C7.01322 9.04641 7.01828 9.0597 7.02333 9.073C7.38217 9.83534 7.88758 10.5534 8.65579 11.4088L8.66085 11.4132C10.0558 12.9201 11.5265 14.0947 13.1489 14.9944C13.3561 15.1096 13.5683 15.2027 13.7705 15.2914C13.9524 15.3711 14.1243 15.4465 14.2709 15.5263C14.2911 15.5351 14.3113 15.5484 14.3315 15.5573C14.5033 15.6326 14.6651 15.6681 14.8319 15.6681C15.2513 15.6681 15.5142 15.4376 15.6001 15.3623L17.3286 13.8465C17.5004 13.6958 17.7733 13.5141 18.0917 13.5141C18.4051 13.5141 18.6628 13.6869 18.8195 13.8376C18.8246 13.842 18.8246 13.842 18.8296 13.8465L21.6144 16.2886C22.135 16.7407 22.135 17.2061 21.6195 17.6759Z" fill="#EA6F12"/>
<path d="M13.8263 4.99532C15.1504 5.19034 16.3533 5.73993 17.3136 6.58205C18.2738 7.42417 18.8955 8.47903 19.1229 9.64026C19.1785 9.93279 19.4666 10.1367 19.7951 10.1367C19.8356 10.1367 19.8709 10.1322 19.9114 10.1278C20.2854 10.0746 20.533 9.76437 20.4724 9.43638C20.1995 8.03138 19.4413 6.75047 18.284 5.7355C17.1266 4.72053 15.666 4.0557 14.0638 3.81636C13.6898 3.76317 13.3411 3.98035 13.2754 4.3039C13.2097 4.62745 13.4523 4.94214 13.8263 4.99532Z" fill="#EA6F12"/>
<path d="M24.8037 9.26354C24.3539 6.94994 23.1106 4.84465 21.2002 3.16928C19.2897 1.49391 16.889 0.403587 14.2508 0.00912211C13.8819 -0.0484964 13.5331 0.173113 13.4674 0.496664C13.4068 0.824646 13.6544 1.13047 14.0284 1.18809C16.3836 1.53823 18.5316 2.51774 20.2399 4.01139C21.9482 5.50948 23.0601 7.39316 23.4593 9.45856C23.5149 9.75109 23.803 9.95497 24.1315 9.95497C24.1719 9.95497 24.2073 9.95053 24.2478 9.9461C24.6167 9.89735 24.8694 9.58709 24.8037 9.26354Z" fill="#EA6F12"/>
</g>
<defs>
<clipPath id="clip0_1_35">
<rect width="23.9464" height="21" fill="white" transform="translate(0.885071)"/>
</clipPath>
</defs>
</symbol>

<symbol id="timer" width="75" height="81" viewBox="0 0 75 81" fill="none" xmlns="http://www.w3.org/2000/svg">
<ellipse cx="49.1245" cy="27.9002" rx="25.7949" ry="27.9002" fill="#ED6D12"/>
<g clip-path="url(#clip0_62_768)">
<path d="M35.2352 5.36545C16.0887 5.36545 0.51123 22.2143 0.51123 42.9235C0.51123 63.6326 16.0887 80.4815 35.2352 80.4815C54.3816 80.4815 69.9591 63.6326 69.9591 42.9235C69.9591 22.2143 54.3816 5.36545 35.2352 5.36545ZM35.2352 75.7867C18.4814 75.7867 4.85174 61.0446 4.85174 42.9235C4.85174 24.8023 18.4814 10.0602 35.2352 10.0602C51.9889 10.0602 65.6186 24.8023 65.6186 42.9235C65.6186 61.0446 51.9889 75.7867 35.2352 75.7867Z" fill="#F5F5F5"/>
<path d="M37.4054 19.4497H33.0649V43.8953L46.7222 58.6673L49.7911 55.3479L37.4054 41.9514V19.4497Z" fill="#F5F5F5"/>
</g>
<defs>
<clipPath id="clip0_62_768">
<rect width="69.4479" height="75.116" fill="white" transform="translate(0.51123 5.36545)"/>
</clipPath>
</defs>
</symbol>

<symbol id="tools" width="80" height="81" viewBox="0 0 80 81" fill="none" xmlns="http://www.w3.org/2000/svg">
<ellipse cx="54.1211" cy="27.9002" rx="25.7949" ry="27.9002" fill="#ED6D12"/>
<g clip-path="url(#clip0_62_779)">
<path d="M0.766569 12.2561L5.39819 21.0225C5.55442 21.3187 5.81591 21.533 6.1217 21.616L10.4428 22.7844L25.2631 38.8143L26.9006 37.0436L11.8483 20.7633C11.7002 20.6026 11.5145 20.4887 11.3111 20.4336L7.1591 19.3069L3.21574 11.8388L6.59658 8.18205L13.504 12.4514L14.5462 16.9422C14.5966 17.1627 14.7024 17.3642 14.8505 17.5244L29.9028 33.8052L31.5399 32.034L16.7195 16.0041L15.6393 11.3329C15.5626 11.0016 15.3645 10.7183 15.0906 10.5488L6.98524 5.53967C6.53323 5.26148 5.96452 5.34391 5.59585 5.74111L0.964713 10.7507C0.59224 11.1469 0.511268 11.7631 0.766569 12.2561Z" fill="#F5F5F5"/>
<path d="M48.9045 30.0473L23.432 57.5993L21.7944 55.8281L47.2674 28.2767L48.9045 30.0473Z" fill="#F5F5F5"/>
<path d="M18.9736 58.574C18.7641 58.1969 18.3878 57.9666 17.981 57.9666H11.0341C10.6278 57.9666 10.251 58.1969 10.0419 58.574L6.56823 64.8356C6.3477 65.2323 6.3477 65.7284 6.56823 66.1256L10.0419 72.3872C10.251 72.7638 10.6278 72.9946 11.0341 72.9946H17.981C18.3878 72.9946 18.7641 72.7638 18.9736 72.3872L22.4469 66.1256C22.6674 65.7284 22.6674 65.2323 22.4469 64.8356L18.9736 58.574ZM17.3261 70.4897H11.6895L8.91071 65.4806L11.6895 60.471H17.3261L20.1049 65.4806L17.3261 70.4897Z" fill="#F5F5F5"/>
<path d="M56.1903 35.4242C63.8375 35.452 70.058 28.7691 70.0838 20.4978C70.0876 19.2387 69.9447 17.9848 69.6584 16.7643C69.5041 16.093 68.8758 15.6845 68.2552 15.8514C68.0514 15.9065 67.8656 16.0204 67.717 16.1806L60.5095 23.9712L54.7909 21.91L52.8838 15.7262L60.0913 7.92895C60.5433 7.43953 60.5428 6.64666 60.0903 6.15775C59.9413 5.9965 59.7536 5.88213 59.5483 5.82752C52.1322 3.79616 44.5984 8.65175 42.7203 16.6726C42.435 17.8895 42.2926 19.1403 42.2964 20.3958C42.2993 21.3819 42.3931 22.3649 42.5779 23.3303L17.2207 50.7565C16.3281 50.5572 15.4193 50.4557 14.5081 50.4521C6.83435 50.4521 0.61377 57.1803 0.61377 65.4804C0.61377 73.78 6.83435 80.5083 14.5081 80.5083C22.1815 80.5083 28.4021 73.78 28.4021 65.4804C28.3992 64.4944 28.3049 63.5114 28.1206 62.5459L34.1911 55.98L36.846 58.8516C37.2985 59.3405 38.0311 59.3405 38.4836 58.8516L39.0623 58.2251C39.57 57.6795 40.3907 57.6795 40.8985 58.2251C41.4057 58.7722 41.4067 59.6604 40.9008 60.2091C40.9004 60.2096 40.8994 60.2106 40.8985 60.2117L40.3198 60.8376C39.8677 61.3265 39.8677 62.1194 40.3198 62.6083L54.1317 77.5475C57.7645 81.5129 63.6812 81.5417 67.3474 77.6124C71.013 73.6831 71.0397 67.283 67.4069 63.3182C67.3874 63.2966 67.3674 63.2749 67.3474 63.2533L53.5354 48.3146C53.0834 47.8257 52.3503 47.8257 51.8983 48.3146L51.3196 48.9405C50.8114 49.4866 49.9912 49.4866 49.483 48.9405C48.9762 48.3934 48.9747 47.5052 49.4806 46.9571C49.4815 46.956 49.4825 46.9555 49.483 46.9545L50.0622 46.328C50.5142 45.8391 50.5142 45.0463 50.0622 44.5573L47.4072 41.6857L53.4778 35.1197C54.3704 35.3191 55.2792 35.4211 56.1903 35.4242ZM60.7395 78.004C59.8984 78.0024 59.0644 77.8381 58.277 77.5182L67.3197 67.7369C68.6844 71.6631 66.8482 76.0422 63.2183 77.5182C62.4262 77.8401 61.5864 78.005 60.7395 78.004ZM47.6225 45.4553C46.3403 47.1096 46.5413 49.5752 48.0707 50.9616C49.4149 52.18 51.3739 52.1789 52.7166 50.958L65.7103 65.0245C65.8513 65.1775 65.9832 65.3387 66.1109 65.5026L56.2113 76.2101C56.0593 76.0726 55.9103 75.9299 55.7688 75.7768L42.7651 61.7108C44.0473 60.0566 43.8463 57.5909 42.3169 56.2046C40.9728 54.9857 39.0132 54.9872 37.6705 56.2077L35.8182 54.2041L45.7697 43.4564L47.6225 45.4553ZM52.2979 32.8596L26.0319 61.2637C25.7438 61.5748 25.628 62.0266 25.7262 62.4537C27.3146 69.2011 23.5451 76.0638 17.3065 77.7814C11.0683 79.4996 4.72335 75.4224 3.13487 68.6746C1.54686 61.9272 5.31636 55.0645 11.555 53.3463C13.4422 52.827 15.4193 52.827 17.3065 53.3463C17.7013 53.4509 18.1181 53.3257 18.4067 53.0161L44.6665 24.6116C44.9542 24.3004 45.07 23.8486 44.9709 23.422C43.3934 16.7535 47.1124 9.96443 53.2777 8.25764C54.4428 7.93565 55.6478 7.812 56.8481 7.89289L50.7404 14.5016C50.4303 14.8365 50.3217 15.3326 50.4603 15.7824L52.7757 23.2968C52.8914 23.6703 53.1629 23.964 53.5087 24.0881L60.4561 26.593C60.8715 26.7429 61.3302 26.6259 61.6402 26.2911L67.7479 19.6849C67.7618 19.9239 67.7689 20.1604 67.7689 20.3958C67.8013 27.2771 62.6705 32.8838 56.3085 32.9194C55.3249 32.9245 54.3446 32.7937 53.392 32.5299C52.9972 32.4233 52.5794 32.5479 52.2918 32.8591H52.2979V32.8596Z" fill="#F5F5F5"/>
<path d="M60.4837 68.3519L58.8461 70.1231L47.2681 57.6L48.9051 55.8288L60.4837 68.3519Z" fill="#F5F5F5"/>
</g>
<defs>
<clipPath id="clip0_62_779">
<rect width="69.4479" height="75.116" fill="white" transform="translate(0.546875 5.36545)"/>
</clipPath>
</defs>
</symbol>

<symbol id="engineer" width="80" height="81" viewBox="0 0 80 81" fill="none" xmlns="http://www.w3.org/2000/svg">
<ellipse cx="54.1245" cy="28.275" rx="25.7949" ry="27.9002" fill="#ED6D12"/>
<path d="M51.9186 54.4065L49.1987 53.7762L49.189 53.7727L42.6652 52.2634C42.7092 51.9178 42.7324 51.5694 42.7347 51.2205V47.9436C44.6926 46.5908 46.3043 44.7268 47.4212 42.5233C48.5382 40.3198 49.1245 37.8476 49.126 35.3347V32.6645H50.6164C50.7411 32.6646 50.8647 32.6381 50.9799 32.5865C51.0951 32.5349 51.1998 32.4593 51.288 32.3639C51.3762 32.2685 51.4461 32.1553 51.4938 32.0307C51.5415 31.906 51.566 31.7724 51.5659 31.6376V28.1165C51.566 27.9816 51.5415 27.848 51.4938 27.7234C51.4461 27.5988 51.3762 27.4855 51.288 27.3901C51.1998 27.2948 51.0951 27.2191 50.9799 27.1675C50.8647 27.116 50.7411 27.0894 50.6164 27.0895H49.9312C49.8917 23.5589 48.7611 20.1441 46.7195 17.3889C44.6779 14.6337 41.8427 12.6967 38.6654 11.8862V9.55463C38.6655 9.41974 38.641 9.28616 38.5933 9.16153C38.5456 9.03689 38.4757 8.92365 38.3875 8.82827C38.2993 8.73289 38.1946 8.65725 38.0794 8.60567C37.9642 8.55408 37.8407 8.52757 37.716 8.52765H32.8329C32.5811 8.52765 32.3396 8.63585 32.1615 8.82844C31.9835 9.02104 31.8834 9.28225 31.8834 9.55463V11.8862C28.7061 12.6967 25.871 14.6337 23.8294 17.3889C21.7878 20.1441 20.6572 23.5589 20.6177 27.0895H19.9324C19.8077 27.0894 19.6842 27.116 19.569 27.1675C19.4538 27.2191 19.3491 27.2948 19.2609 27.3901C19.1727 27.4855 19.1028 27.5988 19.0551 27.7234C19.0074 27.848 18.9829 27.9816 18.9829 28.1165V31.6376C18.9829 31.7724 19.0074 31.906 19.0551 32.0307C19.1028 32.1553 19.1727 32.2685 19.2609 32.3639C19.3491 32.4593 19.4538 32.5349 19.569 32.5865C19.6842 32.6381 19.8077 32.6646 19.9324 32.6645H21.4228V35.3347C21.4244 37.8476 22.0107 40.3198 23.1276 42.5233C24.2446 44.7268 25.8563 46.5908 27.8142 47.9436V51.2205C27.8164 51.5694 27.8396 51.9178 27.8837 52.2634L21.3599 53.7727H21.3529L18.6314 54.403C16.9634 54.7946 15.469 55.7902 14.3952 57.225C13.3213 58.6599 12.7323 60.4482 12.7256 62.2943V77.0417C12.7256 77.314 12.8256 77.5753 13.0037 77.7678C13.1817 77.9604 13.4232 78.0686 13.6751 78.0686H56.8738C57.1256 78.0686 57.3671 77.9604 57.5452 77.7678C57.7233 77.5753 57.8233 77.314 57.8233 77.0417V62.2943C57.816 60.449 57.2268 58.6616 56.1532 57.2274C55.0796 55.7932 53.5858 54.7981 51.9186 54.4065ZM48.0322 27.0895H43.5485V21.0744C43.5485 20.802 43.4485 20.5408 43.2704 20.3482C43.0923 20.1556 42.8508 20.0474 42.599 20.0474C42.3472 20.0474 42.1057 20.1556 41.9276 20.3482C41.7496 20.5408 41.6495 20.802 41.6495 21.0744V27.0895H38.6654V13.9894C41.3286 14.7797 43.6822 16.4847 45.3716 18.8474C47.061 21.2102 47.9948 24.1029 48.0322 27.0895ZM33.7824 10.5816H36.7665V27.0895H33.7824V10.5816ZM31.8834 13.99V27.0895H28.8993V21.0744C28.8993 20.802 28.7993 20.5408 28.6212 20.3482C28.4432 20.1556 28.2017 20.0474 27.9499 20.0474C27.698 20.0474 27.4565 20.1556 27.2785 20.3482C27.1004 20.5408 27.0004 20.802 27.0004 21.0744V27.0895H22.5166C22.554 24.1029 23.4878 21.2103 25.1772 18.8476C26.8667 16.4849 29.2203 14.7801 31.8834 13.99ZM20.8819 29.1435H49.667V30.6106H20.8819V29.1435ZM23.3234 35.3347V32.6645H47.2271V35.3347C47.2271 38.7634 45.9678 42.0518 43.7262 44.4763C41.4847 46.9008 38.4445 48.2628 35.2744 48.2628C32.1044 48.2628 29.0642 46.9008 26.8227 44.4763C24.5811 42.0518 23.3218 38.7634 23.3218 35.3347H23.3234ZM35.2744 50.3109C37.1891 50.3129 39.0831 49.8832 40.8357 49.0492V51.2205C40.8357 52.8159 40.2498 54.3458 39.2068 55.4739C38.1639 56.6019 36.7494 57.2357 35.2744 57.2357C33.7995 57.2357 32.385 56.6019 31.342 55.4739C30.2991 54.3458 29.7132 52.8159 29.7132 51.2205V49.0492C31.4657 49.8832 33.3598 50.3129 35.2744 50.3109ZM14.6246 62.2943C14.6304 60.9185 15.0699 59.5859 15.8707 58.5169C16.6714 57.4479 17.7854 56.7063 19.0285 56.4147L20.609 56.0485V76.0147H14.6246V62.2943ZM22.508 55.609L28.3676 54.2522C28.8665 55.5757 29.6809 56.7325 30.7278 57.6047C31.7747 58.4768 33.0167 59.0331 34.3271 59.2169V76.0147H22.508V55.609ZM36.2239 76.0147V59.2169C37.5344 59.0332 38.7765 58.477 39.8234 57.6048C40.8703 56.7326 41.6847 55.5758 42.1834 54.2522L48.0431 55.609V76.0147H36.2239ZM55.9243 76.0147H49.9399V56.0491L51.5209 56.4153C52.7638 56.707 53.8776 57.4485 54.6782 58.5174C55.4788 59.5863 55.9184 60.9186 55.9243 62.2943V76.0147Z" fill="#F5F5F5"/>
<path d="M53.6184 65.6323C53.4937 65.6322 53.3702 65.6588 53.255 65.7103C53.1398 65.7619 53.0351 65.8376 52.9469 65.9329C52.8587 66.0283 52.7888 66.1416 52.7411 66.2662C52.6934 66.3908 52.6689 66.5244 52.6689 66.6593V70.33C52.6689 70.6024 52.769 70.8636 52.947 71.0562C53.1251 71.2488 53.3666 71.357 53.6184 71.357C53.8703 71.357 54.1118 71.2488 54.2898 71.0562C54.4679 70.8636 54.5679 70.6024 54.5679 70.33V66.6593C54.5679 66.3869 54.4679 66.1257 54.2898 65.9331C54.1118 65.7405 53.8703 65.6323 53.6184 65.6323Z" fill="#F5F5F5"/>
<path d="M30.8579 63.2975H25.9749C25.7231 63.2975 25.4815 63.4057 25.3035 63.5982C25.1254 63.7908 25.0254 64.0521 25.0254 64.3244C25.0254 64.5968 25.1254 64.858 25.3035 65.0506C25.4815 65.2432 25.7231 65.3514 25.9749 65.3514H30.8579C31.1097 65.3514 31.3512 65.2432 31.5293 65.0506C31.7074 64.858 31.8074 64.5968 31.8074 64.3244C31.8074 64.0521 31.7074 63.7908 31.5293 63.5982C31.3512 63.4057 31.1097 63.2975 30.8579 63.2975Z" fill="#F5F5F5"/>
</symbol>

<symbol id="equipment" width="90" height="80" viewBox="0 0 90 80" fill="none" xmlns="http://www.w3.org/2000/svg">
<ellipse cx="64.1206" cy="28.275" rx="25.7949" ry="27.9002" fill="#ED6D12"/>
<g clip-path="url(#clip0_62_798)">
<path d="M6.47308 52.4674L8.78801 44.9558C8.94543 44.4447 9.38729 44.1 9.88529 44.0995H15.6726C16.3118 44.0995 16.8301 44.6601 16.8301 45.3514V51.6111C16.8302 52.2339 16.407 52.7621 15.837 52.8505L7.73472 54.1024C7.68032 54.1109 7.62534 54.1151 7.57036 54.115C6.93115 54.1145 6.41333 53.5535 6.41377 52.8621C6.41391 52.728 6.43388 52.5946 6.47308 52.4674ZM14.5151 50.5257V46.6034H10.7198L9.26026 51.3369L14.5151 50.5257Z" fill="#F5F5F5"/>
<path d="M2.94031 27.8242C2.44231 27.8237 2.00044 27.479 1.84303 26.9679L0.685562 23.2121C0.64592 23.0845 0.625671 22.9511 0.625381 22.8165V17.8087C0.625381 17.1174 1.14363 16.5568 1.78284 16.5568H53.6511C55.566 12.9663 59.8094 11.7345 63.129 13.8057C65.2789 15.147 66.6027 17.6282 66.6008 20.3126V49.1071H68.9158C69.555 49.1071 70.0732 49.6676 70.0732 50.359V65.3822C70.0732 66.0736 69.555 66.6341 68.9158 66.6341H67.7583V69.138H68.9158V71.6419H64.2859V69.138H65.4434V66.6341H60.6978C60.0586 70.0214 57.0016 72.2068 53.8699 71.5154C50.7382 70.8241 48.7177 67.5175 49.3569 64.1303C49.9962 60.743 53.0532 58.5576 56.1848 59.249C58.4577 59.7509 60.2338 61.672 60.6978 64.1303H63.1285V56.6187H38.1434L35.3493 59.6409V64.1303H37.78C38.4192 60.743 41.4762 58.5576 44.6079 59.249C47.7395 59.9404 49.76 63.2469 49.1208 66.6341C48.4816 70.0214 45.4246 72.2068 42.2929 71.5154C40.0201 71.0136 38.244 69.0925 37.78 66.6341H23.7747V69.138H24.9321V71.6419H20.3023V69.138H21.4597V66.6341H16.7141C16.0781 70.0222 13.0233 72.2109 9.89088 71.5229C7.61343 71.0228 5.83339 69.0975 5.37098 66.6341H1.78284C1.14363 66.6341 0.625381 66.0736 0.625381 65.3822V52.8629C0.625381 52.7034 0.653305 52.5454 0.707558 52.3972L5.33742 39.8778C5.5135 39.4026 5.9393 39.0913 6.4127 39.0916H20.3023C20.9415 39.0916 21.4597 39.6522 21.4597 40.3435V49.1071H41.1366V41.4252C41.1411 37.3727 44.1773 34.0887 47.924 34.0839H52.7113V32.4676L30.5227 24.0684H9.561L8.66744 26.9679C8.51003 27.479 8.06816 27.8237 7.57016 27.8242H6.4127V30.3281C6.4127 31.0195 5.89445 31.58 5.25523 31.58C4.61603 31.58 4.09777 32.1406 4.09777 32.8319C4.09777 33.5233 4.61603 34.0839 5.25523 34.0839C5.89445 34.0839 6.4127 33.5233 6.4127 32.8319H8.72763C8.7272 34.9062 7.17229 36.5874 5.25451 36.587C3.33674 36.5865 1.78241 34.9047 1.78284 32.8304C1.78313 31.239 2.71055 29.8206 4.09777 29.2901V27.8241H2.94031V27.8242ZM55.0262 61.6264C53.1084 61.6264 51.5538 63.3079 51.5538 65.3822C51.5538 67.4565 53.1084 69.138 55.0262 69.138C56.944 69.138 58.4986 67.4565 58.4986 65.3822C58.4986 63.3079 56.944 61.6264 55.0262 61.6264ZM43.4516 69.138C45.3693 69.138 46.924 67.4565 46.924 65.3822C46.924 63.3079 45.3693 61.6264 43.4516 61.6264C41.5338 61.6264 39.9792 63.3079 39.9792 65.3822C39.9792 67.4565 41.5338 69.138 43.4516 69.138ZM11.0426 69.138C12.9603 69.138 14.515 67.4565 14.515 65.3822C14.515 63.3079 12.9603 61.6264 11.0426 61.6264C9.12479 61.6264 7.57016 63.3079 7.57016 65.3822C7.57016 67.4565 9.12479 69.138 11.0426 69.138ZM19.1448 41.5955H7.1963L2.94031 53.1033V57.8706H5.25523V60.3745H2.94031V64.1303H5.37098C6.00701 60.7422 9.06185 58.5535 12.1942 59.2415C14.4717 59.7416 16.2517 61.6669 16.7141 64.1303H19.1448V41.5955ZM64.2859 20.3126C64.2859 17.5469 62.213 15.3049 59.6561 15.3049C57.0991 15.3049 55.0262 17.5469 55.0262 20.3126V49.1071H64.2859V20.3126ZM65.4434 64.1303H67.7583V56.6187H65.4434V64.1303ZM21.4597 64.1303H23.7747V56.6187H21.4597V64.1303ZM21.4597 51.6109V54.1148H24.9321C25.5713 54.1148 26.0896 54.6754 26.0896 55.3667V64.1303H33.0344V59.1225C33.0344 58.7905 33.1565 58.4722 33.3735 58.2374L36.8459 54.4816C37.0629 54.2469 37.3572 54.1148 37.6642 54.1148H67.7583V51.6109H21.4597ZM48.0814 36.5877H47.924C45.455 36.5906 43.4542 38.7547 43.4516 41.4252V42.8474H48.0814V36.5877ZM50.3963 36.5877V44.0993C50.3963 44.7907 49.8781 45.3513 49.2389 45.3513H43.4516V49.1071H52.7113V36.5877H50.3963ZM52.7113 29.816V24.0684H37.53L52.7113 29.816ZM16.8299 21.5645H52.7113V19.0607H16.8299V21.5645ZM9.88509 21.5645H14.515V19.0607H9.88509V21.5645ZM6.73563 25.3203L7.57016 22.6137V19.0607H2.94031V22.6137L3.77484 25.3203H6.73563Z" fill="#F5F5F5"/>
</g>
<defs>
<clipPath id="clip0_62_798">
<rect width="69.4479" height="75.116" fill="white" transform="matrix(-1 0 0 1 70.0732 4.66705)"/>
</clipPath>
</defs>
</symbol>

<symbol id="vkontakte" width="25" height="25" viewBox="0 0 25 25" fill="none" xmlns="http://www.w3.org/2000/svg">
<path d="M16.5688 0.5H9.20175C2.47896 0.5 0.885254 2.0937 0.885254 8.81649V16.1835C0.885254 22.9063 2.47896 24.5 9.20175 24.5H16.5688C23.2916 24.5 24.8853 22.9063 24.8853 16.1835V8.81649C24.8853 2.0937 23.2758 0.5 16.5688 0.5ZM20.2601 17.6205H18.518C17.858 17.6205 17.6547 17.097 16.4675 15.894C15.4363 14.8943 14.9796 14.7616 14.7253 14.7616C14.3661 14.7616 14.2641 14.8628 14.2641 15.3555V16.9297C14.2641 17.352 14.1313 17.6055 13.0139 17.6055C11.1659 17.6055 9.1155 16.488 7.67779 14.4061C5.50961 11.3552 4.91638 9.06998 4.91638 8.5975C4.91638 8.34325 5.01762 8.10551 5.50586 8.10551H7.25181C7.69354 8.10551 7.86154 8.30876 8.03328 8.78124C8.8965 11.2734 10.3342 13.4566 10.9274 13.4566C11.1464 13.4566 11.2477 13.3553 11.2477 12.7966V10.2227C11.1809 9.03548 10.5562 8.93349 10.5562 8.512C10.5562 8.30876 10.7242 8.10551 10.9934 8.10551H13.7391C14.1103 8.10551 14.2468 8.30876 14.2468 8.74599V12.2184C14.2468 12.5934 14.4148 12.7261 14.5161 12.7261C14.7351 12.7261 14.9226 12.5934 15.3283 12.1869C16.5823 10.7807 17.4807 8.6125 17.4807 8.6125C17.5977 8.35826 17.801 8.12051 18.2427 8.12051H19.9887C20.5121 8.12051 20.6291 8.38975 20.5121 8.76474C20.2931 9.78021 18.1565 12.7959 18.1565 12.7959C17.9727 13.1004 17.9022 13.2331 18.1565 13.5728C18.344 13.8271 18.9537 14.3543 19.3594 14.8268C20.1057 15.6743 20.6794 16.3853 20.8324 16.8772C21.0041 17.3655 20.7506 17.6197 20.2579 17.6197L20.2601 17.6205Z" fill="#D3D3D3"/>
</symbol>

<symbol id="yandex" width="25" height="25" viewBox="0 0 25 25" fill="none" xmlns="http://www.w3.org/2000/svg">
<g clip-path="url(#clip0_62_933)">
<path d="M2.78725 16.8477V14L0.885254 8.89772H1.84225L3.24025 12.836L4.85425 8.07422H5.73325L3.6625 14.0315V16.8485L2.78725 16.8477ZM8.42425 16.8477H7.69C7.65322 16.7012 7.62814 16.552 7.615 16.4015H7.561C7.315 16.7142 6.99775 16.9257 6.50575 16.9257C5.7085 16.9257 5.16175 16.3235 5.16175 15.2225C5.16175 14.0225 5.776 13.2657 7.34575 13.2657H7.4665V12.9335C7.4665 12.1985 7.2205 11.8865 6.73225 11.8865C6.286 11.8865 5.90725 12.1205 5.6185 12.3747L5.4505 11.609C5.7085 11.3982 6.22075 11.1642 6.78625 11.1642C7.77925 11.1642 8.32225 11.5865 8.32225 12.9455V15.5787C8.32225 16.1135 8.37625 16.583 8.419 16.8485L8.42425 16.8477ZM7.471 13.9257H7.369C6.28675 13.9257 6.05725 14.402 6.05725 15.125C6.05725 15.77 6.268 16.1907 6.709 16.1907C7.00975 16.1907 7.31125 15.992 7.46725 15.746L7.471 13.9257ZM10.2723 16.8477H9.40525V11.2265H10.2723V11.7185H10.3263C10.483 11.5077 10.9053 11.1635 11.428 11.1635C12.1623 11.1635 12.5493 11.5737 12.5493 12.4295V16.8477H11.6703V12.5075C11.6703 12.0852 11.4835 11.9375 11.1475 11.9375C10.7838 11.9375 10.4755 12.2187 10.2723 12.4955V16.8477ZM13.408 14.258C13.408 12.176 14.1858 11.1642 15.307 11.1642C15.5763 11.1642 15.8538 11.2542 16.0218 11.375V8.89772H16.8888V16.8477H16.2438L16.174 16.4015H16.1193C15.877 16.7142 15.565 16.9257 15.1083 16.9257C14.0065 16.9257 13.408 15.992 13.408 14.258ZM16.0225 12.1407C15.8463 11.9645 15.6558 11.8745 15.3655 11.8745C14.6665 11.8745 14.3305 12.9335 14.3305 14.0772C14.3305 15.3905 14.5765 16.19 15.2133 16.19C15.6475 16.19 15.877 15.9792 16.0225 15.7572V12.1407ZM19.627 16.9257C18.4713 16.9257 17.7558 16.004 17.7558 14.2805C17.7558 12.4767 18.256 11.1635 19.447 11.1635C20.3808 11.1635 20.9898 11.8625 20.9898 13.7697V14.246H18.658C18.658 15.5157 19.0143 16.1802 19.705 16.1802C20.194 16.1802 20.5533 15.9612 20.7723 15.8052L20.9755 16.469C20.592 16.7714 20.1161 16.9327 19.6278 16.9257H19.627ZM18.67 13.5312H20.104C20.104 12.5742 19.9473 11.8752 19.447 11.8752C18.916 11.8752 18.7293 12.5315 18.6663 13.5312H18.67ZM24.7645 11.2422L23.7213 13.8672L24.8853 16.8485H23.9875L23.1153 14.5355L22.2723 16.8485H21.4165L22.5843 13.9452L21.526 11.2422H22.4283L23.155 13.277L23.92 11.2422H24.7645Z" fill="#D3D3D3"/>
</g>
<defs>
<clipPath id="clip0_62_933">
<rect width="24" height="24" fill="white" transform="translate(0.885254 0.5)"/>
</clipPath>
</defs>
</symbol>

<symbol></symbol>
</svg>
