<svg width="75" height="81" viewBox="0 0 75 81" fill="none" xmlns="http://www.w3.org/2000/svg">
<ellipse cx="49.1245" cy="27.9002" rx="25.7949" ry="27.9002" fill="#ED6D12"/>
<g clip-path="url(#clip0_62_768)">
<path d="M35.2352 5.36545C16.0887 5.36545 0.51123 22.2143 0.51123 42.9235C0.51123 63.6326 16.0887 80.4815 35.2352 80.4815C54.3816 80.4815 69.9591 63.6326 69.9591 42.9235C69.9591 22.2143 54.3816 5.36545 35.2352 5.36545ZM35.2352 75.7867C18.4814 75.7867 4.85174 61.0446 4.85174 42.9235C4.85174 24.8023 18.4814 10.0602 35.2352 10.0602C51.9889 10.0602 65.6186 24.8023 65.6186 42.9235C65.6186 61.0446 51.9889 75.7867 35.2352 75.7867Z" fill="#F5F5F5"/>
<path d="M37.4054 19.4497H33.0649V43.8953L46.7222 58.6673L49.7911 55.3479L37.4054 41.9514V19.4497Z" fill="#F5F5F5"/>
</g>
<defs>
<clipPath id="clip0_62_768">
<rect width="69.4479" height="75.116" fill="white" transform="translate(0.51123 5.36545)"/>
</clipPath>
</defs>
</svg>
