<svg width="80" height="81" viewBox="0 0 80 81" fill="none" xmlns="http://www.w3.org/2000/svg">
<ellipse cx="54.1211" cy="27.9002" rx="25.7949" ry="27.9002" fill="#ED6D12"/>
<g clip-path="url(#clip0_62_779)">
<path d="M0.766569 12.2561L5.39819 21.0225C5.55442 21.3187 5.81591 21.533 6.1217 21.616L10.4428 22.7844L25.2631 38.8143L26.9006 37.0436L11.8483 20.7633C11.7002 20.6026 11.5145 20.4887 11.3111 20.4336L7.1591 19.3069L3.21574 11.8388L6.59658 8.18205L13.504 12.4514L14.5462 16.9422C14.5966 17.1627 14.7024 17.3642 14.8505 17.5244L29.9028 33.8052L31.5399 32.034L16.7195 16.0041L15.6393 11.3329C15.5626 11.0016 15.3645 10.7183 15.0906 10.5488L6.98524 5.53967C6.53323 5.26148 5.96452 5.34391 5.59585 5.74111L0.964713 10.7507C0.59224 11.1469 0.511268 11.7631 0.766569 12.2561Z" fill="#F5F5F5"/>
<path d="M48.9045 30.0473L23.432 57.5993L21.7944 55.8281L47.2674 28.2767L48.9045 30.0473Z" fill="#F5F5F5"/>
<path d="M18.9736 58.574C18.7641 58.1969 18.3878 57.9666 17.981 57.9666H11.0341C10.6278 57.9666 10.251 58.1969 10.0419 58.574L6.56823 64.8356C6.3477 65.2323 6.3477 65.7284 6.56823 66.1256L10.0419 72.3872C10.251 72.7638 10.6278 72.9946 11.0341 72.9946H17.981C18.3878 72.9946 18.7641 72.7638 18.9736 72.3872L22.4469 66.1256C22.6674 65.7284 22.6674 65.2323 22.4469 64.8356L18.9736 58.574ZM17.3261 70.4897H11.6895L8.91071 65.4806L11.6895 60.471H17.3261L20.1049 65.4806L17.3261 70.4897Z" fill="#F5F5F5"/>
<path d="M56.1903 35.4242C63.8375 35.452 70.058 28.7691 70.0838 20.4978C70.0876 19.2387 69.9447 17.9848 69.6584 16.7643C69.5041 16.093 68.8758 15.6845 68.2552 15.8514C68.0514 15.9065 67.8656 16.0204 67.717 16.1806L60.5095 23.9712L54.7909 21.91L52.8838 15.7262L60.0913 7.92895C60.5433 7.43953 60.5428 6.64666 60.0903 6.15775C59.9413 5.9965 59.7536 5.88213 59.5483 5.82752C52.1322 3.79616 44.5984 8.65175 42.7203 16.6726C42.435 17.8895 42.2926 19.1403 42.2964 20.3958C42.2993 21.3819 42.3931 22.3649 42.5779 23.3303L17.2207 50.7565C16.3281 50.5572 15.4193 50.4557 14.5081 50.4521C6.83435 50.4521 0.61377 57.1803 0.61377 65.4804C0.61377 73.78 6.83435 80.5083 14.5081 80.5083C22.1815 80.5083 28.4021 73.78 28.4021 65.4804C28.3992 64.4944 28.3049 63.5114 28.1206 62.5459L34.1911 55.98L36.846 58.8516C37.2985 59.3405 38.0311 59.3405 38.4836 58.8516L39.0623 58.2251C39.57 57.6795 40.3907 57.6795 40.8985 58.2251C41.4057 58.7722 41.4067 59.6604 40.9008 60.2091C40.9004 60.2096 40.8994 60.2106 40.8985 60.2117L40.3198 60.8376C39.8677 61.3265 39.8677 62.1194 40.3198 62.6083L54.1317 77.5475C57.7645 81.5129 63.6812 81.5417 67.3474 77.6124C71.013 73.6831 71.0397 67.283 67.4069 63.3182C67.3874 63.2966 67.3674 63.2749 67.3474 63.2533L53.5354 48.3146C53.0834 47.8257 52.3503 47.8257 51.8983 48.3146L51.3196 48.9405C50.8114 49.4866 49.9912 49.4866 49.483 48.9405C48.9762 48.3934 48.9747 47.5052 49.4806 46.9571C49.4815 46.956 49.4825 46.9555 49.483 46.9545L50.0622 46.328C50.5142 45.8391 50.5142 45.0463 50.0622 44.5573L47.4072 41.6857L53.4778 35.1197C54.3704 35.3191 55.2792 35.4211 56.1903 35.4242ZM60.7395 78.004C59.8984 78.0024 59.0644 77.8381 58.277 77.5182L67.3197 67.7369C68.6844 71.6631 66.8482 76.0422 63.2183 77.5182C62.4262 77.8401 61.5864 78.005 60.7395 78.004ZM47.6225 45.4553C46.3403 47.1096 46.5413 49.5752 48.0707 50.9616C49.4149 52.18 51.3739 52.1789 52.7166 50.958L65.7103 65.0245C65.8513 65.1775 65.9832 65.3387 66.1109 65.5026L56.2113 76.2101C56.0593 76.0726 55.9103 75.9299 55.7688 75.7768L42.7651 61.7108C44.0473 60.0566 43.8463 57.5909 42.3169 56.2046C40.9728 54.9857 39.0132 54.9872 37.6705 56.2077L35.8182 54.2041L45.7697 43.4564L47.6225 45.4553ZM52.2979 32.8596L26.0319 61.2637C25.7438 61.5748 25.628 62.0266 25.7262 62.4537C27.3146 69.2011 23.5451 76.0638 17.3065 77.7814C11.0683 79.4996 4.72335 75.4224 3.13487 68.6746C1.54686 61.9272 5.31636 55.0645 11.555 53.3463C13.4422 52.827 15.4193 52.827 17.3065 53.3463C17.7013 53.4509 18.1181 53.3257 18.4067 53.0161L44.6665 24.6116C44.9542 24.3004 45.07 23.8486 44.9709 23.422C43.3934 16.7535 47.1124 9.96443 53.2777 8.25764C54.4428 7.93565 55.6478 7.812 56.8481 7.89289L50.7404 14.5016C50.4303 14.8365 50.3217 15.3326 50.4603 15.7824L52.7757 23.2968C52.8914 23.6703 53.1629 23.964 53.5087 24.0881L60.4561 26.593C60.8715 26.7429 61.3302 26.6259 61.6402 26.2911L67.7479 19.6849C67.7618 19.9239 67.7689 20.1604 67.7689 20.3958C67.8013 27.2771 62.6705 32.8838 56.3085 32.9194C55.3249 32.9245 54.3446 32.7937 53.392 32.5299C52.9972 32.4233 52.5794 32.5479 52.2918 32.8591H52.2979V32.8596Z" fill="#F5F5F5"/>
<path d="M60.4837 68.3519L58.8461 70.1231L47.2681 57.6L48.9051 55.8288L60.4837 68.3519Z" fill="#F5F5F5"/>
</g>
<defs>
<clipPath id="clip0_62_779">
<rect width="69.4479" height="75.116" fill="white" transform="translate(0.546875 5.36545)"/>
</clipPath>
</defs>
</svg>
