<svg width="30" height="29" viewBox="0 0 30 29" fill="none" xmlns="http://www.w3.org/2000/svg">
<path d="M14.6555 2.1C13.8375 2.1044 13.0172 2.15064 12.1899 2.24531C10.6078 2.42805 9.03986 2.73189 7.53517 3.38139C5.1422 4.41399 3.44533 6.16655 2.95314 8.71392C2.74454 9.78835 2.57579 10.8782 2.4797 11.9746C2.29454 14.1037 2.40939 16.2393 3.05158 18.3376C3.55783 19.9911 4.49064 21.4772 6.12423 22.4415C6.81564 22.8489 7.72736 23.047 8.20314 23.254C8.33673 23.3134 8.36954 23.3486 8.37658 23.3575C8.38361 23.3641 8.40236 23.3795 8.40001 23.5116C8.38361 24.859 8.40001 27.4658 8.40001 27.4658L8.40236 28.0273H9.47345L9.64689 27.8687C9.64689 27.8687 12.368 25.4094 13.3524 24.3967C13.5305 24.2161 13.6219 24.1148 13.6406 24.1038C13.657 24.0928 13.6289 24.0862 13.8117 24.0818C15.1031 24.0576 16.3922 24.0114 17.6813 23.9453C19.3805 23.8572 21.1125 23.7053 22.7789 23.0514C24.2297 22.4812 25.4414 21.5499 26.175 20.154C26.925 18.7229 27.3258 17.2059 27.4758 15.6361C27.7242 13.0227 27.6375 10.4048 26.8688 7.82443C26.4164 6.31186 25.507 5.03267 24.1125 4.12997C22.4438 3.05114 20.5617 2.64602 18.7195 2.38842C17.6438 2.23871 16.5609 2.13963 15.4734 2.10881C15.2016 2.1022 14.9297 2.0978 14.6555 2.1ZM15.4406 3.23608C16.4742 3.2625 17.5078 3.35717 18.5438 3.50248C20.3203 3.75128 21.9961 4.12997 23.4328 5.05909C24.5977 5.81207 25.3242 6.82926 25.7133 8.12606C26.4305 10.5391 26.5219 13.0116 26.2805 15.537C26.1422 16.9923 25.7742 18.364 25.0969 19.6564C24.4992 20.7969 23.5664 21.5212 22.3149 22.0122C20.8617 22.5825 19.282 22.7344 17.618 22.8202C16.343 22.8863 15.0656 22.9303 13.7883 22.9545C13.4672 22.9611 13.1531 23.0404 12.9305 23.1945C12.7078 23.3486 12.607 23.4918 12.4688 23.6327C11.7656 24.3548 10.3641 25.6252 9.60001 26.3209C9.59532 25.4799 9.58829 24.4627 9.60001 23.5248C9.6047 23.2364 9.53439 22.9413 9.35861 22.708C9.18283 22.4746 8.94142 22.3337 8.70939 22.2324C8.03204 21.9374 7.14611 21.7128 6.76173 21.486C5.41876 20.6934 4.65704 19.5045 4.2047 18.0249C3.61173 16.0896 3.49923 14.0971 3.67501 12.0693C3.76876 11.0169 3.93048 9.96229 4.13439 8.91648C4.56095 6.71257 5.90158 5.3255 8.03439 4.40518C9.38204 3.82393 10.8211 3.53771 12.3375 3.36378C13.3711 3.24489 14.4047 3.20746 15.4406 3.23608ZM15.6938 6.04545C15.1992 6.04545 14.7188 6.09829 14.2524 6.19517C13.9313 6.26562 13.7274 6.56726 13.8 6.87109C13.8727 7.17493 14.1961 7.36427 14.5195 7.29602C14.8969 7.21456 15.2906 7.17273 15.6938 7.17273C18.6234 7.17273 20.9859 9.39205 20.9859 12.142C20.9859 12.5229 20.9414 12.8928 20.8547 13.2494C20.782 13.5511 20.9836 13.8549 21.307 13.9232C21.6305 13.9914 21.9516 13.7999 22.0242 13.496C22.1297 13.0601 22.1859 12.6087 22.1859 12.142C22.1859 8.78217 19.2727 6.04545 15.6938 6.04545ZM9.70782 7.17493C9.60939 7.17052 9.50861 7.17713 9.40314 7.19915C8.31329 7.42592 7.23048 8.1679 7.20001 9.49332C7.23048 9.67827 7.22814 9.87642 7.30079 10.0437C7.65704 10.8628 7.96642 11.7082 8.41173 12.4832C10.5797 16.2482 13.8586 18.866 18.0375 20.5283C18.5367 20.7264 19.0524 20.7683 19.5563 20.5701C20.25 20.2993 20.8383 19.881 21.2297 19.2799C21.7664 18.4543 21.7734 17.8818 20.8899 17.2719C20.3109 16.8712 19.7414 16.4595 19.1555 16.0676C18.2625 15.4732 17.2969 15.3697 16.6313 16.4133C16.5961 16.4661 16.5445 16.5102 16.5 16.5542C16.1578 16.8955 15.7383 16.9791 15.293 16.8074C13.6031 16.1535 12.2977 15.0989 11.5102 13.529C11.0461 12.6065 11.1727 12.1442 12.0399 11.5299C12.1266 11.4705 12.2086 11.4066 12.2883 11.3384C12.668 11.0125 12.7688 10.625 12.5438 10.1869C12.0352 9.18729 11.3578 8.2956 10.5 7.5272C10.268 7.32024 10.0031 7.19034 9.70782 7.17493ZM15.6844 7.73636C15.4195 7.73636 15.157 7.75618 14.8992 7.79801C14.6813 7.82443 14.4961 7.96094 14.4164 8.15248C14.3367 8.34623 14.3766 8.5642 14.5172 8.72273C14.6602 8.87905 14.8852 8.9517 15.1008 8.90767C15.2883 8.87905 15.4852 8.86364 15.6844 8.86364C17.6344 8.86364 19.2 10.3344 19.2 12.1662C19.2 12.3533 19.1836 12.5383 19.1531 12.7144C19.1063 12.917 19.1836 13.1283 19.35 13.2626C19.5188 13.3947 19.7508 13.4322 19.957 13.3573C20.1609 13.2825 20.3063 13.1085 20.3344 12.9038C20.3789 12.6616 20.4 12.415 20.4 12.1662C20.4 9.7267 18.2813 7.73636 15.6844 7.73636ZM15.6 9.42727C15.3844 9.42507 15.1828 9.53075 15.0727 9.70689C14.9649 9.88302 14.9649 10.0988 15.0727 10.2749C15.1828 10.4511 15.3844 10.5567 15.6 10.5545C16.6008 10.5545 17.4 11.3053 17.4 12.2455C17.3977 12.448 17.5102 12.6374 17.6977 12.7408C17.8852 12.8421 18.1149 12.8421 18.3024 12.7408C18.4899 12.6374 18.6024 12.448 18.6 12.2455C18.6 10.6955 17.25 9.42727 15.6 9.42727Z" fill="#E7E7E7"/>
</svg>
