<svg width="25" height="25" viewBox="0 0 25 25" fill="none" xmlns="http://www.w3.org/2000/svg">
<path d="M16.5688 0.5H9.20175C2.47896 0.5 0.885254 2.0937 0.885254 8.81649V16.1835C0.885254 22.9063 2.47896 24.5 9.20175 24.5H16.5688C23.2916 24.5 24.8853 22.9063 24.8853 16.1835V8.81649C24.8853 2.0937 23.2758 0.5 16.5688 0.5ZM20.2601 17.6205H18.518C17.858 17.6205 17.6547 17.097 16.4675 15.894C15.4363 14.8943 14.9796 14.7616 14.7253 14.7616C14.3661 14.7616 14.2641 14.8628 14.2641 15.3555V16.9297C14.2641 17.352 14.1313 17.6055 13.0139 17.6055C11.1659 17.6055 9.1155 16.488 7.67779 14.4061C5.50961 11.3552 4.91638 9.06998 4.91638 8.5975C4.91638 8.34325 5.01762 8.10551 5.50586 8.10551H7.25181C7.69354 8.10551 7.86154 8.30876 8.03328 8.78124C8.8965 11.2734 10.3342 13.4566 10.9274 13.4566C11.1464 13.4566 11.2477 13.3553 11.2477 12.7966V10.2227C11.1809 9.03548 10.5562 8.93349 10.5562 8.512C10.5562 8.30876 10.7242 8.10551 10.9934 8.10551H13.7391C14.1103 8.10551 14.2468 8.30876 14.2468 8.74599V12.2184C14.2468 12.5934 14.4148 12.7261 14.5161 12.7261C14.7351 12.7261 14.9226 12.5934 15.3283 12.1869C16.5823 10.7807 17.4807 8.6125 17.4807 8.6125C17.5977 8.35826 17.801 8.12051 18.2427 8.12051H19.9887C20.5121 8.12051 20.6291 8.38975 20.5121 8.76474C20.2931 9.78021 18.1565 12.7959 18.1565 12.7959C17.9727 13.1004 17.9022 13.2331 18.1565 13.5728C18.344 13.8271 18.9537 14.3543 19.3594 14.8268C20.1057 15.6743 20.6794 16.3853 20.8324 16.8772C21.0041 17.3655 20.7506 17.6197 20.2579 17.6197L20.2601 17.6205Z" fill="#D3D3D3"/>
</svg>
