<svg width="25" height="25" viewBox="0 0 25 25" fill="none" xmlns="http://www.w3.org/2000/svg">
<g clip-path="url(#clip0_62_933)">
<path d="M2.78725 16.8477V14L0.885254 8.89772H1.84225L3.24025 12.836L4.85425 8.07422H5.73325L3.6625 14.0315V16.8485L2.78725 16.8477ZM8.42425 16.8477H7.69C7.65322 16.7012 7.62814 16.552 7.615 16.4015H7.561C7.315 16.7142 6.99775 16.9257 6.50575 16.9257C5.7085 16.9257 5.16175 16.3235 5.16175 15.2225C5.16175 14.0225 5.776 13.2657 7.34575 13.2657H7.4665V12.9335C7.4665 12.1985 7.2205 11.8865 6.73225 11.8865C6.286 11.8865 5.90725 12.1205 5.6185 12.3747L5.4505 11.609C5.7085 11.3982 6.22075 11.1642 6.78625 11.1642C7.77925 11.1642 8.32225 11.5865 8.32225 12.9455V15.5787C8.32225 16.1135 8.37625 16.583 8.419 16.8485L8.42425 16.8477ZM7.471 13.9257H7.369C6.28675 13.9257 6.05725 14.402 6.05725 15.125C6.05725 15.77 6.268 16.1907 6.709 16.1907C7.00975 16.1907 7.31125 15.992 7.46725 15.746L7.471 13.9257ZM10.2723 16.8477H9.40525V11.2265H10.2723V11.7185H10.3263C10.483 11.5077 10.9053 11.1635 11.428 11.1635C12.1623 11.1635 12.5493 11.5737 12.5493 12.4295V16.8477H11.6703V12.5075C11.6703 12.0852 11.4835 11.9375 11.1475 11.9375C10.7838 11.9375 10.4755 12.2187 10.2723 12.4955V16.8477ZM13.408 14.258C13.408 12.176 14.1858 11.1642 15.307 11.1642C15.5763 11.1642 15.8538 11.2542 16.0218 11.375V8.89772H16.8888V16.8477H16.2438L16.174 16.4015H16.1193C15.877 16.7142 15.565 16.9257 15.1083 16.9257C14.0065 16.9257 13.408 15.992 13.408 14.258ZM16.0225 12.1407C15.8463 11.9645 15.6558 11.8745 15.3655 11.8745C14.6665 11.8745 14.3305 12.9335 14.3305 14.0772C14.3305 15.3905 14.5765 16.19 15.2133 16.19C15.6475 16.19 15.877 15.9792 16.0225 15.7572V12.1407ZM19.627 16.9257C18.4713 16.9257 17.7558 16.004 17.7558 14.2805C17.7558 12.4767 18.256 11.1635 19.447 11.1635C20.3808 11.1635 20.9898 11.8625 20.9898 13.7697V14.246H18.658C18.658 15.5157 19.0143 16.1802 19.705 16.1802C20.194 16.1802 20.5533 15.9612 20.7723 15.8052L20.9755 16.469C20.592 16.7714 20.1161 16.9327 19.6278 16.9257H19.627ZM18.67 13.5312H20.104C20.104 12.5742 19.9473 11.8752 19.447 11.8752C18.916 11.8752 18.7293 12.5315 18.6663 13.5312H18.67ZM24.7645 11.2422L23.7213 13.8672L24.8853 16.8485H23.9875L23.1153 14.5355L22.2723 16.8485H21.4165L22.5843 13.9452L21.526 11.2422H22.4283L23.155 13.277L23.92 11.2422H24.7645Z" fill="#D3D3D3"/>
</g>
<defs>
<clipPath id="clip0_62_933">
<rect width="24" height="24" fill="white" transform="translate(0.885254 0.5)"/>
</clipPath>
</defs>
</svg>
